<?xml version="1.0" encoding="UTF-8"?>
<!DOCTYPE svg PUBLIC "-//W3C//DTD SVG 1.1//EN" "http://www.w3.org/Graphics/SVG/1.1/DTD/svg11.dtd">
<!-- Creator: CorelDRAW -->
<svg xmlns="http://www.w3.org/2000/svg" xml:space="preserve" width="95.9789mm" height="56mm" version="1.1" style="shape-rendering:geometricPrecision; text-rendering:geometricPrecision; image-rendering:optimizeQuality; fill-rule:evenodd; clip-rule:evenodd"
viewBox="0 0 1887.87 1101.5"
 xmlns:xlink="http://www.w3.org/1999/xlink"
 xmlns:xodm="http://www.corel.com/coreldraw/odm/2003">
 <defs>
  <style type="text/css">
   <![CDATA[
    .fil5 {fill:#818181;fill-rule:nonzero}
    .fil3 {fill:#BB8071;fill-rule:nonzero}
    .fil1 {fill:#BFC5CD;fill-rule:nonzero}
    .fil4 {fill:#CD9480;fill-rule:nonzero}
    .fil2 {fill:#EDC1B1;fill-rule:nonzero}
    .fil0 {fill:white;fill-rule:nonzero}
   ]]>
  </style>
 </defs>
 <g id="Layer_x0020_1">
  <metadata id="CorelCorpID_0Corel-Layer"/>
  <polygon class="fil0" points="-0,0 1887.87,0 1887.87,1101.5 -0,1101.5 "/>
  <path class="fil1" d="M55.44 600.85c-23.55,13.71 -33.35,27.76 -44.38,45.08 -4.38,6.86 -6.68,14.59 -9.42,22.02 -0.62,1.68 -1.18,3.39 -1.64,5.13l0 15.51c8.65,25.67 58.66,33.99 78.36,15.04 18.4,-17.71 22.5,-32.74 27.26,-44.37 4.7,-11.47 10.6,-45.09 2.31,-55.01 -8.3,-9.92 -41.81,-9.61 -52.48,-3.39z"/>
  <path class="fil1" d="M95.19 537.46c-5.93,5.72 -10.37,13.73 -10.87,19.85 -0.51,6.3 3.18,14.65 9.33,18.21 7.85,4.57 16.38,-4.45 20.48,-9.76 7.4,-9.57 12.66,-21.66 6.18,-29.91 -7.32,-9.31 -17.46,-5.77 -25.12,1.62z"/>
  <path class="fil1" d="M134.38 571.44c-7.64,11.44 -12.03,26.11 -10.64,36.27 1.44,10.48 10.48,22.79 21.8,26.42 14.49,4.66 25.2,-13.11 30,-23.24 8.65,-18.26 12.91,-39.88 -0.67,-51.04 -15.31,-12.59 -30.62,-3.19 -40.49,11.6z"/>
  <path class="fil1" d="M124.7 697.99c-3.55,8.74 -1.5,16.88 7.11,24.16 7.24,6.13 21.12,10.35 24.65,-0.38 2.15,-6.49 2.31,-13.51 2.43,-20.1 0.08,-3.88 -2.87,-7.34 -7.6,-9.52 -9.81,-4.51 -23.32,-2.18 -26.58,5.84z"/>
  <path class="fil2" d="M1165.27 8.97c-30.64,42.56 -55.02,122.15 113.48,159.11 168.5,36.97 258.47,12.09 333.72,94.45 65.01,71.15 198.04,46.13 275.39,-13.34l0 -249.19 -714.64 0c-3.08,2.93 -5.76,5.92 -7.96,8.97z"/>
  <path class="fil1" d="M1887.87 1052.25c-17.38,-6.11 -33.65,-14.57 -47.85,-27.49 -10.88,-9.9 -21.47,-20.45 -35.26,-26.2 -14.66,-6.11 -30.6,-6.06 -46.08,-3.8 -21.82,3.18 -42.63,11.62 -64.67,13.61 -45.98,4.14 -83.36,-36.63 -103.72,-73.13 -13.26,-23.79 -21.52,-50.52 -24.57,-77.57 -6.23,-55.3 7.82,-111.27 40.2,-156.59 32.17,-45.03 80.43,-77.81 132.84,-94.71 46.32,-14.94 103.54,-21.27 149.11,0.16l0 -13.29c-35.2,-14.48 -76.92,-14.69 -114.09,-8.17 -56.74,9.94 -110.94,37.33 -151.62,78.25 -41.19,41.43 -65.95,96.06 -68.97,154.5 -2.64,51.05 10.94,105.57 43.83,145.52 6.8,8.26 28.64,32.32 46.92,42.72 28.86,16.43 42.79,15.57 64.23,11.98 30.39,-5.08 65.07,-22.34 95.2,-7.23 14.16,7.11 24.38,19.71 36.54,29.5 12.52,10.08 26.8,17.29 41.9,22.69 2.01,0.72 4.03,1.41 6.06,2.08l0 -12.83z"/>
  <path class="fil2" d="M699.81 90.54c-8.87,16.09 -20.93,30.3 -28.32,47.21 -7.78,17.79 -8.1,37.98 -17.33,55.19 -7.74,14.41 -19.71,26.08 -33.55,34.62 -33.96,20.96 -75.22,20.81 -113.18,12.86 -40.14,-8.41 -80.86,-22.82 -117.02,-42.24 -28.99,-15.56 -58.4,-41.15 -50.71,-77.7 7.77,-36.93 40.27,-60.79 68.51,-82.23 14.34,-10.89 28.68,-22.09 40.51,-35.74 0.71,-0.82 1.41,-1.65 2.09,-2.49l-20.09 0c-3.86,3.95 -7.95,7.74 -12.26,11.42 -29.81,25.43 -64.94,45.71 -83.45,81.79 -8.76,17.06 -12.88,36.54 -8.09,55.42 4.35,17.15 15.64,31.64 29.23,42.59 14.67,11.82 31.41,20.31 48.57,27.87 20.85,9.18 42.16,17.26 63.96,23.92 41.7,12.73 88.23,21.58 130.77,7.5 34.59,-11.45 64.25,-36.69 73.8,-72.73 2.8,-10.57 4.37,-21.5 8.38,-31.73 3.64,-9.31 9.19,-17.84 14.69,-26.14 11.29,-17.04 22.38,-33.81 26.08,-54.31 4,-22.17 1.38,-44.49 -5.59,-65.6l-13.76 0c3.82,11.06 6.44,22.25 7.56,33.17 2.05,20.02 -1.03,39.66 -10.8,57.37z"/>
  <path class="fil3" d="M-0 747.12c38.4,-10.97 79.19,-14.96 118.36,-14.45 31.37,0.41 63.2,4.55 93.03,14.54 29.74,9.97 56.6,25.97 79.57,47.31 23.09,21.45 41.89,47.11 58.57,73.74 17.18,27.4 31.45,57.27 54.71,80.27 21.8,21.55 51.2,35.64 81.62,39.29 16.42,1.97 33.01,1.14 49.46,2.36 16.67,1.23 32.01,5.04 46.57,13.43 14.43,8.31 27.5,18.9 40.83,28.84 15.15,11.32 30.28,22.65 45.42,34 15.74,11.81 31.61,23.44 47.51,35.05l19.61 0c-12.56,-9.99 -25.04,-20.08 -37.63,-30.03 -29.35,-23.22 -58.81,-46.47 -88.73,-68.94 -13.43,-10.1 -27.56,-19.03 -43.78,-23.86 -16.17,-4.82 -33.25,-5.15 -49.99,-5.61 -16.39,-0.45 -32.73,-1.25 -48.6,-5.71 -14.28,-4.02 -28.02,-10.81 -39.94,-19.62 -27.06,-19.98 -42.5,-49.96 -59.7,-78.01 -16.63,-27.09 -35.19,-53.13 -57.56,-75.81 -22.28,-22.58 -48.56,-40.84 -78.05,-52.68 -29.65,-11.91 -61.32,-17.83 -93.14,-19.51 -45.91,-2.43 -93.62,1.96 -138.11,15.56l0 9.84z"/>
  <path class="fil2" d="M-0 808.64c17.11,-10.78 37.09,-18.02 60.3,-19.44 89.17,-5.45 163.4,37.44 213.69,105.51 34.06,46.09 82.38,82.6 165.4,104.73 66.77,17.8 139.46,67.25 114.73,102.06l-554.11 0 0 -292.86z"/>
  <path class="fil3" d="M927.32 0c13.05,14.59 26.84,28.66 40.47,42.22 22.99,22.87 48.71,39.3 81.4,47.51 36.89,9.27 75.7,12.83 113.3,18.9 40.46,6.54 80.83,13.62 121.08,21.23 40.25,7.6 80.38,15.74 120.41,24.32 36.68,7.85 73.9,17.4 111.84,17.03 69.24,-0.69 123.01,-41.63 178.1,-75.41 32.71,-20.06 70.54,-33.5 100.34,-57.46 13.86,-11.14 25.7,-24.14 35.56,-38.34l-18 0c-7.47,8.73 -15.55,16.98 -24.55,24.46 -26.4,21.97 -59.82,33.93 -89.63,51.12 -53.09,30.62 -103.52,74.51 -168.48,79.94 -38.7,3.24 -76.84,-6.42 -114.15,-14.65 -35.52,-7.84 -71.15,-15.21 -106.9,-22.13 -73.08,-14.15 -146.53,-26.31 -220.28,-37.06 -38.84,-5.66 -72.5,-15.16 -101.48,-41.13 -14.33,-12.84 -27.53,-26.77 -40.87,-40.56l-18.16 0z"/>
  <path class="fil1" d="M-0 265.85c62.41,4.06 163.27,-18.78 202.17,-92.16 50.88,-95.98 103.2,-93 138.66,-126.58 19,-18 30.27,-33.64 35.27,-47.11l-376.09 0 0 265.85z"/>
  <path class="fil4" d="M1756.39 208.57c0.29,-9.6 -2.94,-19.14 -9.94,-26.38 -15.81,-16.37 -37.93,-37.34 -62.14,-37.91 -24.48,-0.58 -44.51,18.98 -39.59,44.03 5.79,29.52 37.38,53.38 66.32,57.01 14.14,1.78 28.37,-1.62 37.21,-13.5 5.14,-6.89 7.9,-15.1 8.14,-23.26z"/>
  <path class="fil4" d="M1660.29 327.86c11.23,-11.28 8.4,-37.85 -3.27,-48.09 -10.74,-9.41 -32.25,2.68 -42.95,8.76 -7.18,4.08 -13.56,10.12 -16.45,17.85 -13.18,35.35 45.01,39.18 62.67,21.47z"/>
  <path class="fil4" d="M1811.87 398.56c21.42,-1.85 26.55,-26.71 2.38,-32.95 -24.29,-22.31 -43.42,-6.93 -43.38,4.71 -9.39,16.29 20.15,32.46 41,28.24z"/>
  <path class="fil4" d="M1706.37 399.89c13.21,-10.28 9.24,-33 -6.47,-38.23 -39.77,-30.25 -43.11,68.54 6.47,38.23z"/>
  <path class="fil4" d="M1761.66 336.65c22.27,-7.63 31.66,-53.3 1.03,-53.62 -75.67,-40.62 -77.76,78.02 -1.03,53.62z"/>
  <path class="fil3" d="M33.2 530.94c16.12,-59.98 37.66,-120.21 74.64,-170.72 15.36,-20.97 33.13,-39.56 52.13,-57.3 14.3,-13.34 28.81,-26.54 44.77,-37.86 18.42,-13.06 38.1,-24.34 57.99,-35.01 46,-24.68 93.94,-45.84 139.55,-71.2 3.99,-2.22 0.35,-8.94 -3.79,-7.05 -21.89,9.99 -43.18,21.52 -64.64,32.39 -21.02,10.65 -42.1,21.16 -62.95,32.13 -20.32,10.68 -40.48,21.79 -59.7,34.37 -17.19,11.25 -32.67,24.36 -48.03,37.94 -21.38,18.9 -42.08,38.48 -59.28,61.33 -13.68,18.17 -25.59,37.65 -35.78,57.99 -19.38,38.72 -32.08,79.63 -38.81,122.35 -0.41,2.56 3.26,3.06 3.91,0.64z"/>
  <path class="fil3" d="M613.89 104.36c-21.75,10.81 -43.81,21.77 -66.72,29.95 -45.6,16.25 -95.65,17.24 -143.56,18.51 0.21,-0.52 0.41,-1.04 0.61,-1.57 25.2,-21.77 55.42,-31.32 87.7,-38.21 16.09,-3.44 32.27,-6.57 48.07,-11.24 15.33,-4.53 31.42,-10.25 43.66,-20.87 1.13,-0.98 0.22,-3.29 -1.34,-2.5 -15.43,7.82 -30.53,15.01 -47.24,19.74 -17.13,4.86 -34.67,7.99 -52.02,11.94 -25.56,5.83 -54.06,13.84 -74.48,31.47 14.7,-29.62 39.4,-52.55 70.19,-66.23 39.63,-17.61 84.19,-19.32 126.73,-14.66 23.12,2.53 46,6.84 68.8,11.37 -19.83,11.34 -39.95,22.14 -60.41,32.3zm71.68 -37.79c-84.37,-16.84 -188.5,-34.27 -256.11,33.82 -14.51,14.61 -26.1,33.03 -31.04,53.16 -2.28,1.72 -1.87,6.52 1.59,6.7 25.39,1.37 51.12,-0.54 76.34,-3.55 24.39,-2.9 49.16,-6.65 72.41,-14.82 24.12,-8.47 47.33,-20.11 70.16,-31.54 23.14,-11.56 45.9,-23.92 68.25,-36.95 3.01,-1.75 1.37,-6.24 -1.6,-6.83z"/>
  <path class="fil3" d="M393.77 102.95c-10.5,16.36 -22.83,31.78 -37.89,44.17 -15.08,12.41 -32.97,20.43 -48.9,31.58 -11.19,7.85 -21.18,17.04 -30.48,26.91 12.74,-25.88 28.15,-49.83 48.42,-71.04 12.48,-13.05 26.31,-24.73 41.17,-34.97 12.2,-8.41 25.44,-16.53 29.42,-31.64 0.34,-1.29 -1.6,-1.75 -2.16,-0.66 -8,15.74 -24.24,24.18 -37.87,34.27 -13.64,10.13 -26.31,21.58 -37.81,34.11 -20.67,22.5 -38.81,49.32 -49.91,78.12 8.9,-32.46 18.78,-63.98 36.88,-92.95 10.02,-16.04 22.15,-31.04 36.23,-43.7 15.14,-13.62 32.7,-24.07 50.41,-33.94 16.78,-9.35 33.71,-18.46 50.38,-28.02 -18.3,27.89 -29.79,59.6 -47.89,87.78zm59.29 -102.61c-20.35,10.3 -40.29,21.49 -60.24,32.53 -18.94,10.47 -37.91,21.2 -54.33,35.42 -28.7,24.85 -48.69,57.97 -61.8,93.32 -7.43,20 -13.63,41.08 -16.23,62.31 -0.24,0.29 -0.47,0.56 -0.71,0.85 -2.12,2.57 1.71,5.67 3.95,3.28 0.6,-0.65 1.21,-1.3 1.81,-1.95 0.74,0.24 1.59,0.02 2.01,-0.97 0.31,-0.75 0.65,-1.5 0.99,-2.24 12.25,-13.14 24.83,-26.26 39.3,-36.92 15.73,-11.56 33.81,-19.5 49.2,-31.57 29.39,-23.06 48.36,-55.95 64.65,-88.92 10.17,-20.57 19.85,-42.37 35.43,-59.54 2.3,-2.53 -0.8,-7.22 -4.01,-5.6z"/>
  <path class="fil3" d="M453.89 247.99c-21.97,0.75 -44.18,0.21 -66.12,-1.19 -21.76,-1.38 -43.56,-4.72 -63.22,-14.62 -11.05,-5.56 -22.53,-13.28 -34.69,-16.82 2.4,-0.86 4.81,-1.71 7.22,-2.55 29.19,-6.68 58.81,-8.98 88.79,-3.71 34.86,6.13 71.02,23.84 106.86,16.39 1.44,-0.3 1.22,-2.26 -0.25,-2.26 -19.56,-0.03 -38.72,-2.9 -57.67,-7.56 -18.31,-4.52 -36.44,-10 -55.18,-12.6 -15.6,-2.18 -31.73,-2.68 -47.67,-1.25 4.55,-1.24 9.12,-2.44 13.72,-3.49 24.45,-5.6 49.35,-6.77 74.31,-4.53 46.92,4.2 92.33,17.95 138.94,24.29 -30.48,21.48 -68.19,28.65 -105.06,29.9zm114.76 -35.83c-51.29,-5.61 -101.05,-21.35 -152.66,-24.51 -24.09,-1.48 -47.97,0.22 -71.44,5.92 -13.41,3.25 -26.43,7.66 -39.27,12.59 -8.02,1.93 -15.87,4.44 -23.48,7.56 -4.73,-0.54 -9.55,-0.29 -14.49,1.13 -3.25,0.93 -1.93,6.19 1.37,5.72 1.22,-0.17 2.42,-0.27 3.61,-0.32 -0.03,0.63 0.52,1.3 1.3,1.01 0.95,-0.33 1.89,-0.69 2.83,-1.02 18.16,0.8 33.17,12.89 49.51,20.41 19.37,8.93 40.8,12.17 61.9,13.66 41.67,2.93 85.51,4.32 126.11,-6.98 20.53,-5.72 39.83,-15.03 56.22,-28.77 2.19,-1.83 1.78,-6.03 -1.5,-6.39z"/>
  <path class="fil3" d="M240.22 180.55c-18.55,32.74 -45.91,59.3 -70.11,87.75 -9.49,11.13 -18.49,22.64 -26.56,34.8 7.38,-31.5 20.82,-60.6 41.42,-86.37 20.54,-25.7 50.07,-50.88 56.69,-84.6 0.19,-1.02 -1.32,-1.48 -1.75,-0.53 -7.67,16.97 -17.16,32.43 -28.89,46.9 -11.27,13.9 -23.67,26.87 -34.39,41.22 -18.29,24.48 -31.43,53.23 -36.6,83.38 1.24,-31.63 7.36,-62.23 21.09,-91.64 8.43,-18.07 19.26,-34.95 32.25,-50.09 13.63,-15.89 29.78,-29.26 46.04,-42.35 12.01,-9.67 24.15,-19.24 35.46,-29.7 -12.69,29.91 -18.49,62.71 -34.64,91.23zm45.65 -112.9c-30.09,31.09 -68.11,53.44 -96.79,85.94 -26.54,30.07 -44.95,67.64 -52.58,107.01 -4.29,22.12 -5.97,45.65 -2.22,67.97 0.61,3.64 5.81,3.07 5.68,-0.61 -0.05,-1.49 -0.08,-2.97 -0.11,-4.46 0.39,-0.31 0.76,-0.72 1.04,-1.24 18.23,-32.97 44.65,-60.16 68.52,-88.98 11.35,-13.7 22.19,-27.87 31.52,-43.04 10.17,-16.52 17.29,-34.23 23.31,-52.62 7.4,-22.59 13.76,-45.47 27.26,-65.32 2.64,-3.89 -2.33,-8.09 -5.64,-4.67z"/>
  <path class="fil3" d="M298.81 325.09c-20.07,4.69 -40.66,8.66 -61.26,9.97 -19.73,1.24 -38.65,-2.61 -58.03,-5.69 -14.6,-2.32 -30.21,-4.27 -44.48,-0.37 0.79,-0.62 1.61,-1.25 2.41,-1.87 30.18,-14.19 61.87,-24.32 94.72,-30.63 10.06,-1.93 20.25,-3.33 30.51,-3.13 9.17,0.18 18.08,2.04 27.03,3.9 15.06,3.13 31.97,6.76 46.3,-0.83 1.54,-0.81 0.72,-3.27 -1.01,-2.6 -17.78,6.91 -35.22,1.91 -53.16,-1.54 -18.91,-3.63 -37.42,-2.46 -56.2,1.4 -25.98,5.34 -51.97,12.77 -75.99,24.21 18.17,-13.35 37.18,-25.45 58.13,-34 41.19,-16.82 85.65,-12.32 128.71,-6.77 21.91,2.84 43.68,6.59 65.27,11.19 -32.84,15.96 -67.39,28.44 -102.97,36.74zm114.99 -41.94c-45.01,-9.93 -91.8,-17.46 -137.99,-17.92 -21.21,-0.22 -42.21,2.45 -62.25,9.62 -17.97,6.44 -34.66,16.01 -50.31,26.87 -13.01,9.01 -25.25,18.95 -37.2,29.27 -0.9,0.58 -1.83,1.15 -2.73,1.75 -0.28,0.18 -0.3,0.5 -0.18,0.76 -4.34,3.8 -8.66,7.64 -12.95,11.5 -1.37,1.23 0.21,3.59 1.72,2.37 3.53,-2.8 7.05,-5.64 10.6,-8.46 0.64,0.74 1.56,1.19 2.64,0.95 18.2,-4.18 35.59,-3.91 53.95,-0.93 18.57,3.01 36.76,6.56 55.69,5.59 39.7,-2.06 80.19,-13.13 117.44,-26.57 21.38,-7.72 42.17,-16.93 62.33,-27.44 3.31,-1.72 3.18,-6.49 -0.75,-7.36z"/>
  <path class="fil3" d="M112.94 302.88c-4.54,20.43 -13.61,37.96 -23.85,56 -6.2,10.9 -13.85,23.58 -16.75,36.58 0.35,-7.53 0.88,-15.04 2.28,-22.64 2.71,-14.56 6.77,-28.83 11.08,-42.99 8.03,-26.31 18.33,-53.27 18.38,-81.1 0.01,-1.11 -1.67,-1.05 -1.88,-0.06 -6.02,28.35 -14.18,55.78 -22.6,83.49 -4.1,13.48 -7.94,27.09 -10.34,40.99 -0.44,2.57 -0.89,5.24 -1.3,7.96 -1.48,-11.32 -2.91,-22.65 -3.4,-34.1 -0.92,-22.04 0.86,-44.25 7.48,-65.39 11.35,-36.26 34.06,-66.27 56.32,-96.37 -2.11,17.73 -4.23,35.47 -6.33,53.19 -2.55,21.49 -4.4,43.28 -9.08,64.44zm15.51 -63.38c2.58,-21.83 5.16,-43.64 7.73,-65.47 0.37,-3.1 -3.57,-5.13 -5.66,-2.58 -26.81,32.58 -53.17,68.69 -65.51,109.53 -6.19,20.43 -7.99,41.73 -7.27,62.99 0.76,22.38 3.26,45.56 8.46,67.38 0.19,0.77 0.61,1.34 1.14,1.69 0.08,0.42 0.15,0.83 0.24,1.23 0.42,1.89 3.59,2.44 3.77,0.1 0.1,-1.19 0.17,-2.39 0.24,-3.59 0.92,1.81 3.8,1.38 4.39,-0.76 2.75,-9.9 4.86,-19.64 9.16,-29.04 3.82,-8.36 8.44,-16.3 12.96,-24.28 9.76,-17.22 17.52,-34.52 21.65,-53.97 4.42,-20.8 6.21,-42.15 8.69,-63.23z"/>
  <path class="fil5" d="M1855.12 612.17c-18.85,57.01 -42.94,113.96 -81.4,160.68 -15.98,19.41 -34.15,36.38 -53.47,52.45 -14.53,12.09 -29.26,24.03 -45.28,34.08 -18.5,11.6 -38.12,21.41 -57.89,30.62 -45.75,21.3 -93.19,39.09 -138.6,61.06 -3.96,1.92 -0.83,8.61 3.28,7.01 21.68,-8.44 42.86,-18.4 64.16,-27.72 20.87,-9.11 41.8,-18.12 62.52,-27.54 20.2,-9.19 40.27,-18.82 59.51,-29.9 17.21,-9.92 32.86,-21.72 48.44,-33.98 21.67,-17.08 42.72,-34.84 60.58,-55.94 14.2,-16.78 26.77,-34.94 37.71,-54 20.84,-36.3 35.32,-75.09 44.17,-115.95 0.53,-2.46 -2.98,-3.14 -3.74,-0.84z"/>
  <path class="fil5" d="M1271.26 992.02c21.59,-9.23 43.49,-18.61 66.04,-25.23 44.9,-13.2 93.26,-11.4 139.57,-10 -0.22,0.5 -0.44,0.99 -0.67,1.49 -25.53,19.63 -55.2,27.19 -86.74,32.07 -15.72,2.44 -31.5,4.57 -47.01,8.21 -15.04,3.53 -30.88,8.18 -43.29,17.75 -1.13,0.88 -0.39,3.16 1.16,2.49 15.31,-6.7 30.3,-12.81 46.68,-16.46 16.8,-3.75 33.89,-5.81 50.85,-8.68 25,-4.22 52.95,-10.38 73.62,-26.27 -15.81,27.78 -40.9,48.55 -71.37,60.07 -39.22,14.83 -82.32,14.03 -123.11,7.2 -22.18,-3.7 -44.02,-9.12 -65.79,-14.74 19.76,-9.86 39.77,-19.19 60.08,-27.87zm-71.26 32.55c80.51,20.88 180.06,43.42 249.05,-18.59 14.8,-13.3 27,-30.46 32.88,-49.6 2.29,-1.55 2.15,-6.19 -1.17,-6.56 -24.43,-2.7 -49.36,-2.28 -73.88,-0.76 -23.7,1.46 -47.81,3.72 -70.69,10.32 -23.74,6.86 -46.78,16.81 -69.45,26.58 -22.98,9.91 -45.62,20.58 -67.9,31.93 -3,1.52 -1.67,5.94 1.16,6.67z"/>
  <path class="fil5" d="M1483.63 1005.46c11.03,-15.2 23.78,-29.42 38.99,-40.54 15.24,-11.15 32.95,-17.92 48.93,-27.81 11.24,-6.96 21.38,-15.28 30.9,-24.29 -13.72,24.28 -29.9,46.55 -50.63,65.91 -12.76,11.92 -26.74,22.43 -41.65,31.5 -12.25,7.45 -25.47,14.56 -30.13,28.92 -0.4,1.22 1.45,1.78 2.04,0.75 8.6,-14.75 24.73,-22 38.43,-31 13.73,-9.02 26.59,-19.39 38.37,-30.84 21.18,-20.59 40.16,-45.46 52.45,-72.65 -10.38,30.84 -21.63,60.71 -40.69,87.68 -10.55,14.94 -23.09,28.75 -37.36,40.2 -15.36,12.31 -32.88,21.44 -50.51,29.99 -16.71,8.1 -33.56,15.96 -50.17,24.27 19.19,-25.9 32.03,-55.89 51.04,-82.09zm-62.85 95.78c20.21,-8.81 40.07,-18.52 59.92,-28.09 18.85,-9.08 37.75,-18.38 54.39,-31.2 29.06,-22.4 50.16,-53.27 64.76,-86.66 8.27,-18.9 15.41,-38.91 19.09,-59.25 0.25,-0.26 0.5,-0.52 0.73,-0.79 2.19,-2.36 -1.34,-5.56 -3.63,-3.37 -0.62,0.59 -1.24,1.19 -1.86,1.78 -0.7,-0.28 -1.52,-0.1 -1.98,0.82 -0.35,0.7 -0.72,1.41 -1.08,2.11 -12.55,12.01 -25.41,23.99 -39.96,33.48 -15.82,10.3 -33.71,16.95 -49.22,27.76 -29.63,20.65 -49.74,51.35 -67.28,82.27 -10.93,19.3 -21.48,39.81 -37.46,55.52 -2.35,2.31 0.38,7.01 3.57,5.62z"/>
  <path class="fil5" d="M1433.57 862.18c21.25,0.49 42.65,2.23 63.74,4.78 20.93,2.52 41.77,6.95 60.22,17.58 10.35,5.96 21.02,14.06 32.55,18.13 -2.36,0.7 -4.73,1.38 -7.1,2.07 -28.55,4.85 -57.26,5.44 -85.91,-1.3 -33.31,-7.83 -67.24,-26.89 -102.24,-21.69 -1.4,0.21 -1.3,2.12 0.11,2.2 18.87,1.1 37.21,4.92 55.25,10.46 17.43,5.36 34.63,11.65 52.57,15.19 14.94,2.95 30.48,4.32 45.93,3.83 -4.46,0.94 -8.93,1.84 -13.43,2.61 -23.92,4.05 -48,3.82 -71.97,0.3 -45.06,-6.63 -88.13,-22.39 -132.77,-31.07 30.61,-19.06 67.39,-23.91 103.05,-23.1zm-112.73 28.29c49.19,8.24 96.35,26.15 145.99,32.04 23.17,2.74 46.32,2.42 69.29,-1.79 13.12,-2.41 25.92,-5.95 38.59,-10.01 7.85,-1.42 15.57,-3.4 23.07,-5.99 4.54,0.77 9.22,0.79 14.06,-0.31 3.18,-0.71 2.2,-5.86 -1.01,-5.6 -1.18,0.09 -2.34,0.13 -3.5,0.13 0.07,-0.62 -0.43,-1.28 -1.2,-1.06 -0.93,0.29 -1.86,0.56 -2.79,0.85 -17.47,-1.77 -31.31,-14.26 -46.67,-22.43 -18.2,-9.68 -38.7,-13.98 -58.99,-16.57 -40.07,-5.11 -82.3,-8.87 -122.1,-0.19 -20.13,4.39 -39.27,12.32 -55.84,24.68 -2.21,1.66 -2.06,5.73 1.1,6.26z"/>
  <path class="fil5" d="M1636.09 939c19.7,-30.59 47.56,-54.72 72.48,-80.85 9.76,-10.23 19.08,-20.84 27.54,-32.12 -8.85,30 -23.42,57.34 -44.71,81.09 -21.23,23.67 -51.11,46.36 -59.35,78.53 -0.24,0.97 1.19,1.5 1.66,0.61 8.34,-15.96 18.34,-30.36 30.46,-43.69 11.64,-12.8 24.33,-24.65 35.46,-37.9 19,-22.63 33.25,-49.65 39.9,-78.47 -2.94,30.47 -10.52,59.67 -25.38,87.29 -9.13,16.97 -20.51,32.69 -33.88,46.57 -14.04,14.58 -30.34,26.6 -46.75,38.35 -12.12,8.69 -24.37,17.25 -35.85,26.72 13.88,-28.17 21.28,-59.51 38.43,-86.14zm-50.26 106.46c30.74,-28.36 68.67,-47.85 98.14,-77.64 27.26,-27.57 47.09,-62.83 56.61,-100.4 5.35,-21.11 8.27,-43.73 5.88,-65.48 -0.39,-3.54 -5.45,-3.29 -5.52,0.28 -0.03,1.44 -0.09,2.87 -0.14,4.31 -0.4,0.28 -0.77,0.65 -1.08,1.14 -19.41,30.82 -46.39,55.62 -71.01,82.11 -11.7,12.6 -22.95,25.68 -32.78,39.81 -10.71,15.39 -18.57,32.1 -25.38,49.5 -8.38,21.39 -15.78,43.14 -29.89,61.55 -2.77,3.6 1.81,7.92 5.18,4.81z"/>
  <path class="fil5" d="M1587.47 796.28c19.63,-3.43 39.71,-6.12 59.67,-6.25 19.11,-0.13 37.17,4.62 55.69,8.66 13.97,3.04 28.94,5.77 42.92,2.8 -0.81,0.56 -1.62,1.12 -2.43,1.68 -29.91,12.04 -61.05,20.07 -93.11,24.37 -9.82,1.31 -19.73,2.09 -29.62,1.34 -8.85,-0.69 -17.34,-2.96 -25.89,-5.26 -14.35,-3.85 -30.48,-8.27 -44.73,-1.74 -1.52,0.7 -0.88,3.11 0.83,2.57 17.55,-5.69 34.1,0.09 51.23,4.4 18.05,4.54 35.97,4.43 54.33,1.73 25.36,-3.73 50.85,-9.47 74.66,-19.19 -18.27,11.88 -37.29,22.52 -57.96,29.62 -40.67,13.97 -83.34,7.2 -124.6,-0.53 -20.99,-3.93 -41.79,-8.75 -62.38,-14.38 32.58,-13.6 66.61,-23.74 101.4,-29.82zm-113.28 34.17c42.9,12.06 87.65,21.89 132.21,24.87 20.46,1.37 40.89,-0.05 60.6,-5.88 17.7,-5.24 34.33,-13.54 50.05,-23.16 13.05,-7.99 25.41,-16.92 37.5,-26.22 0.9,-0.51 1.83,-1.01 2.73,-1.53 0.28,-0.16 0.31,-0.48 0.21,-0.72 4.41,-3.43 8.77,-6.9 13.13,-10.38 1.39,-1.11 0,-3.48 -1.52,-2.4 -3.56,2.52 -7.12,5.07 -10.71,7.6 -0.56,-0.76 -1.43,-1.25 -2.49,-1.07 -17.79,3.04 -34.56,1.83 -52.1,-2.06 -17.76,-3.93 -35.13,-8.35 -53.45,-8.45 -38.43,-0.2 -78.13,8.27 -114.8,19.19 -21.06,6.28 -41.65,14.04 -61.68,23.06 -3.29,1.49 -3.43,6.09 0.31,7.14z"/>
  <path class="fil5" d="M1765.65 827.91c5.5,-19.47 15.2,-35.89 26.09,-52.74 6.58,-10.19 14.66,-21.99 18.18,-34.38 -0.76,7.25 -1.68,14.47 -3.46,21.73 -3.41,13.9 -8.1,27.46 -13.06,40.87 -9.19,24.97 -20.61,50.42 -22.19,77.28 -0.06,1.07 1.56,1.1 1.82,0.15 7.37,-27.04 16.74,-53.05 26.39,-79.33 4.7,-12.79 9.15,-25.71 12.23,-39 0.57,-2.47 1.15,-5.02 1.7,-7.62 0.8,11.01 1.57,22.02 1.41,33.1 -0.31,21.33 -3.26,42.68 -10.8,62.71 -12.94,34.36 -36.5,62.1 -59.65,89.92 3.01,-17 6.02,-34 9.03,-51 3.65,-20.6 6.62,-41.52 12.31,-61.69zm-18.46 60.31c-3.69,20.92 -7.37,41.85 -11.06,62.76 -0.52,2.97 3.16,5.15 5.33,2.8 27.66,-29.97 55.07,-63.37 69.24,-102.11 7.09,-19.38 10,-39.83 10.48,-60.4 0.49,-21.64 -0.65,-44.15 -4.48,-65.48 -0.14,-0.76 -0.52,-1.33 -1,-1.7 -0.06,-0.4 -0.11,-0.8 -0.17,-1.19 -0.3,-1.87 -3.33,-2.56 -3.64,-0.31 -0.15,1.15 -0.29,2.31 -0.42,3.45 -0.78,-1.79 -3.6,-1.53 -4.29,0.5 -3.19,9.4 -5.76,18.69 -10.43,27.53 -4.15,7.85 -9.05,15.27 -13.86,22.72 -10.36,16.08 -18.79,32.35 -23.86,50.89 -5.41,19.83 -8.29,40.34 -11.85,60.55z"/>
 </g>
</svg>
