<?xml version="1.0" encoding="UTF-8"?>
<!DOCTYPE svg PUBLIC "-//W3C//DTD SVG 1.1//EN" "http://www.w3.org/Graphics/SVG/1.1/DTD/svg11.dtd">
<!-- Creator: CorelDRAW -->
<svg xmlns="http://www.w3.org/2000/svg" xml:space="preserve" width="95.979mm" height="56.0006mm" version="1.1" style="shape-rendering:geometricPrecision; text-rendering:geometricPrecision; image-rendering:optimizeQuality; fill-rule:evenodd; clip-rule:evenodd"
viewBox="0 0 7884.07 4600.1"
 xmlns:xlink="http://www.w3.org/1999/xlink"
 xmlns:xodm="http://www.corel.com/coreldraw/odm/2003">
 <defs>
  <style type="text/css">
   <![CDATA[
    .fil6 {fill:#EDC1B1}
    .fil5 {fill:#818181;fill-rule:nonzero}
    .fil3 {fill:#BB8071;fill-rule:nonzero}
    .fil1 {fill:#BFC5CD;fill-rule:nonzero}
    .fil4 {fill:#CD9480;fill-rule:nonzero}
    .fil2 {fill:#EDC1B1;fill-rule:nonzero}
    .fil0 {fill:white;fill-rule:nonzero}
   ]]>
  </style>
 </defs>
 <g id="Layer_x0020_1">
  <metadata id="CorelCorpID_0Corel-Layer"/>
  <polygon class="fil0" points="0.01,0.05 7884.06,0.05 7884.06,4600.1 0.01,4600.1 "/>
  <path class="fil1" d="M231.53 2509.3c-98.35,57.25 -139.27,115.93 -185.34,188.27 -18.29,28.65 -27.9,60.93 -39.34,91.96 -2.59,7.02 -4.93,14.15 -6.85,21.42l0 64.77c36.13,107.21 244.98,141.94 327.24,62.81 76.85,-73.96 93.96,-136.73 113.84,-185.3 19.62,-47.9 44.27,-188.31 9.64,-229.73 -34.66,-41.43 -174.6,-40.14 -219.17,-14.15l-0.03 -0.04z"/>
  <path class="fil1" d="M397.53 2244.57c-24.77,23.89 -43.31,57.34 -45.39,82.9 -2.13,26.31 13.28,61.18 38.96,76.05 32.78,19.08 68.41,-18.58 85.53,-40.76 30.9,-39.96 52.87,-90.46 25.81,-124.91 -30.57,-38.88 -72.92,-24.09 -104.91,6.77l0 -0.05z"/>
  <path class="fil1" d="M561.2 2386.48c-31.9,47.77 -50.24,109.04 -44.43,151.47 6.01,43.77 43.77,95.17 91.04,110.34 60.52,19.46 105.24,-54.75 125.29,-97.05 36.13,-76.25 53.91,-166.55 -2.8,-213.15 -63.94,-52.58 -127.87,-13.32 -169.09,48.44l0 -0.04z"/>
  <path class="fil1" d="M520.77 2914.97c-14.83,36.5 -6.27,70.5 29.69,100.9 30.24,25.6 88.2,43.22 102.94,-1.59 8.98,-27.11 9.64,-56.42 10.14,-83.94 0.34,-16.21 -11.98,-30.66 -31.74,-39.76 -40.97,-18.84 -97.39,-9.1 -111,24.39l-0.04 0z"/>
  <path class="fil2" d="M4866.37 37.51c-127.96,177.73 -229.77,510.12 473.91,664.47 703.68,154.39 1079.42,50.49 1393.67,394.44 271.49,297.13 827.05,192.64 1150.08,-55.71l0 -1040.66 -2984.45 0c-12.86,12.24 -24.05,24.73 -33.24,37.46l0.04 0.01z"/>
  <path class="fil1" d="M7884.06 4394.42c-72.58,-25.51 -140.53,-60.84 -199.83,-114.8 -45.43,-41.34 -89.66,-85.4 -147.25,-109.42 -61.22,-25.51 -127.79,-25.31 -192.44,-15.87 -91.12,13.28 -178.03,48.53 -270.07,56.84 -192.02,17.29 -348.13,-152.98 -433.15,-305.4 -55.37,-99.35 -89.87,-210.98 -102.61,-323.94 -26.01,-230.94 32.66,-464.68 167.89,-653.95 134.35,-188.05 335.89,-324.94 554.77,-395.52 193.44,-62.39 432.4,-88.83 622.71,0.67l0 -55.5c-147,-60.47 -321.23,-61.34 -476.46,-34.12 -236.95,41.51 -463.31,155.89 -633.19,326.78 -172.02,173.02 -275.42,401.17 -288.03,645.21 -11.02,213.2 45.69,440.88 183.04,607.72 28.4,34.49 119.61,134.97 195.95,178.41 120.52,68.61 178.7,65.02 268.23,50.03 126.91,-21.22 271.74,-93.3 397.57,-30.2 59.14,29.69 101.82,82.32 152.6,123.2 52.28,42.1 111.92,72.2 174.98,94.76 8.4,3.01 16.83,5.89 25.31,8.68l0 -53.58 -0.01 0.01z"/>
  <path class="fil2" d="M2922.53 378.16c-37.04,67.19 -87.41,126.53 -118.27,197.15 -32.49,74.29 -33.83,158.61 -72.38,230.48 -32.32,60.18 -82.32,108.91 -140.11,144.58 -141.82,87.53 -314.13,86.91 -472.65,53.71 -167.63,-35.12 -337.68,-95.3 -488.7,-176.4 -121.06,-64.98 -243.88,-171.85 -211.77,-324.48 32.45,-154.22 168.17,-253.87 286.11,-343.41 59.88,-45.47 119.77,-92.26 169.17,-149.26 2.97,-3.43 5.89,-6.89 8.73,-10.4l-83.9 0c-16.12,16.49 -33.2,32.32 -51.2,47.69 -124.49,106.2 -271.2,190.89 -348.5,341.57 -36.59,71.24 -53.79,152.6 -33.79,231.44 18.17,71.62 65.31,132.14 122.07,177.87 61.26,49.36 131.18,84.82 202.84,116.39 87.07,38.34 176.07,72.08 267.11,99.89 174.14,53.16 368.46,90.12 546.12,31.32 144.45,-47.82 268.32,-153.22 308.2,-303.73 11.7,-44.14 18.25,-89.79 34.99,-132.51 15.2,-38.88 38.38,-74.5 61.34,-109.17 47.15,-71.16 93.46,-141.2 108.91,-226.81 16.71,-92.58 5.77,-185.8 -23.35,-273.96l-57.47 0c15.95,46.19 26.89,92.92 31.57,138.53 8.56,83.61 -4.3,165.63 -45.11,239.59l0.03 -0.08z"/>
  <path class="fil3" d="M0.01 3120.15c160.36,-45.81 330.71,-62.48 494.29,-60.34 131,1.71 263.94,19 388.51,60.72 124.2,41.64 236.37,108.45 332.3,197.57 96.43,89.58 174.94,196.74 244.6,307.95 71.74,114.43 131.34,239.17 228.47,335.22 91.04,90 213.82,148.84 340.86,164.08 68.57,8.23 137.85,4.76 206.55,9.86 69.62,5.13 133.68,21.05 194.48,56.09 60.26,34.71 114.85,78.93 170.51,120.44 63.27,47.27 126.45,94.59 189.68,141.99 65.73,49.32 132,97.89 198.41,146.37l81.9 0c-52.45,-41.72 -104.57,-83.86 -157.15,-125.41 -122.57,-96.97 -245.6,-194.06 -370.55,-287.91 -56.09,-42.18 -115.09,-79.47 -182.84,-99.64 -67.53,-20.13 -138.86,-21.51 -208.77,-23.43 -68.45,-1.88 -136.69,-5.22 -202.96,-23.85 -59.64,-16.79 -117.01,-45.15 -166.79,-81.94 -113.01,-83.44 -177.49,-208.64 -249.31,-325.78 -69.45,-113.13 -146.96,-221.88 -240.38,-316.6 -93.04,-94.3 -202.8,-170.55 -325.95,-220 -123.82,-49.74 -256.08,-74.46 -388.97,-81.48 -191.73,-10.14 -390.97,8.18 -576.77,64.98l0 41.1 -0.12 -0.01z"/>
  <path class="fil2" d="M0.01 3377.07c71.46,-45.02 154.89,-75.25 251.82,-81.18 372.39,-22.76 682.38,156.35 892.4,440.63 142.24,192.48 344.03,344.95 690.74,437.37 278.85,74.33 582.41,280.85 479.13,426.22l-2314.05 0 0 -1223.03 -0.03 0z"/>
  <path class="fil3" d="M3872.65 0.05c54.5,60.93 112.09,119.69 169.01,176.32 96.01,95.51 203.42,164.12 339.94,198.41 154.06,38.71 316.14,53.58 473.16,78.93 168.97,27.31 337.56,56.88 505.65,88.66 168.09,31.74 335.68,65.73 502.85,101.56 153.18,32.78 308.62,72.66 467.06,71.12 289.15,-2.88 513.71,-173.86 743.78,-314.92 136.6,-83.77 294.58,-139.9 419.04,-239.97 57.88,-46.53 107.33,-100.81 148.51,-160.11l-75.17 0c-31.2,36.46 -64.94,70.91 -102.52,102.15 -110.25,91.75 -249.82,141.7 -374.31,213.48 -221.71,127.87 -432.31,311.17 -703.6,333.84 -161.62,13.53 -320.89,-26.81 -476.71,-61.18 -148.34,-32.74 -297.13,-63.52 -446.43,-92.42 -305.2,-59.09 -611.94,-109.88 -919.93,-154.77 -162.2,-23.64 -302.77,-63.31 -423.8,-171.76 -59.84,-53.62 -114.97,-111.8 -170.68,-169.39l-75.84 0 0 0.05z"/>
  <path class="fil1" d="M0.01 1110.29c260.63,16.95 681.84,-78.43 844.3,-384.88 212.48,-400.83 430.98,-388.38 579.06,-528.62 79.35,-75.17 126.41,-140.48 147.29,-196.74l-1570.61 0 0 1110.24 -0.04 0z"/>
  <path class="fil4" d="M7334.98 871.07c1.21,-40.09 -12.28,-79.93 -41.51,-110.17 -66.03,-68.36 -158.41,-155.94 -259.51,-158.32 -102.24,-2.42 -185.88,79.26 -165.33,183.88 24.18,123.28 156.11,222.92 276.96,238.09 59.05,7.43 118.48,-6.77 155.39,-56.38 21.46,-28.77 32.99,-63.06 33.99,-97.13l0 0.03z"/>
  <path class="fil4" d="M6933.65 1369.25c46.9,-47.11 35.08,-158.07 -13.65,-200.83 -44.85,-39.3 -134.68,11.2 -179.37,36.59 -29.98,17.04 -56.63,42.26 -68.7,74.55 -55.04,147.63 187.97,163.62 261.72,89.66l0 0.04z"/>
  <path class="fil4" d="M7566.68 1664.5c89.45,-7.73 110.88,-111.54 9.94,-137.61 -101.44,-93.17 -181.33,-28.94 -181.16,19.67 -39.22,68.03 84.15,135.56 171.22,117.93z"/>
  <path class="fil4" d="M7126.09 1670.06c55.17,-42.93 38.59,-137.81 -27.02,-159.65 -166.09,-126.33 -180.03,286.24 27.02,159.65z"/>
  <path class="fil4" d="M7356.99 1405.96c93,-31.86 132.22,-222.59 4.3,-223.92 -316.01,-169.63 -324.74,325.82 -4.3,223.92z"/>
  <path class="fil3" d="M138.65 2217.35c67.32,-250.49 157.27,-502.01 311.71,-712.96 64.15,-87.57 138.35,-165.21 217.71,-239.29 59.72,-55.71 120.32,-110.84 186.97,-158.11 76.93,-54.54 159.11,-101.64 242.18,-146.21 192.1,-103.07 392.31,-191.44 582.78,-297.34 16.67,-9.27 1.46,-37.33 -15.83,-29.44 -91.42,41.72 -180.33,89.87 -269.95,135.27 -87.79,44.47 -175.82,88.37 -262.89,134.18 -84.86,44.6 -169.05,91 -249.31,143.54 -71.79,46.98 -136.43,101.73 -200.58,158.45 -89.29,78.93 -175.73,160.7 -247.56,256.12 -57.13,75.88 -106.87,157.23 -149.42,242.18 -80.94,161.7 -133.97,332.55 -162.08,510.95 -1.71,10.69 13.61,12.78 16.33,2.67l-0.05 0z"/>
  <path class="fil3" d="M2563.71 435.87c-90.83,45.15 -182.96,90.92 -278.63,125.08 -190.43,67.86 -399.45,72 -599.53,77.3 0.88,-2.17 1.71,-4.35 2.55,-6.56 105.24,-90.92 231.44,-130.8 366.25,-159.57 67.19,-14.37 134.76,-27.44 200.75,-46.94 64.02,-18.92 131.22,-42.81 182.33,-87.15 4.72,-4.09 0.92,-13.74 -5.59,-10.44 -64.44,32.66 -127.5,62.68 -197.28,82.44 -71.54,20.3 -144.79,33.37 -217.25,49.86 -106.75,24.35 -225.76,57.8 -311.04,131.42 61.39,-123.7 164.54,-219.46 293.12,-276.59 165.5,-73.54 351.59,-80.68 529.24,-61.22 96.55,10.56 192.1,28.56 287.32,47.48 -82.82,47.36 -166.83,92.46 -252.28,134.89l0.04 0zm299.35 -157.81c-352.35,-70.32 -787.21,-143.12 -1069.56,141.24 -60.6,61.02 -109,137.94 -129.63,222 -9.52,7.18 -7.81,27.23 6.64,27.98 106.03,5.73 213.48,-2.26 318.81,-14.83 101.86,-12.11 205.3,-27.77 302.4,-61.89 100.73,-35.37 197.65,-83.98 293,-131.72 96.63,-48.28 191.68,-99.89 285.02,-154.31 12.57,-7.31 5.73,-26.06 -6.68,-28.52l0.01 0.04z"/>
  <path class="fil3" d="M1644.45 429.99c-43.85,68.32 -95.34,132.72 -158.23,184.46 -62.98,51.82 -137.69,85.32 -204.22,131.88 -46.73,32.78 -88.45,71.16 -127.29,112.38 53.2,-108.08 117.56,-208.09 202.21,-296.68 52.12,-54.5 109.88,-103.28 171.93,-146.04 50.95,-35.12 106.24,-69.03 122.86,-132.14 1.42,-5.39 -6.68,-7.31 -9.02,-2.76 -33.41,65.73 -101.23,100.98 -158.15,143.12 -56.97,42.3 -109.88,90.12 -157.9,142.45 -86.32,93.96 -162.08,205.97 -208.43,326.24 37.17,-135.56 78.43,-267.19 154.02,-388.18 41.84,-66.99 92.5,-129.63 151.3,-182.5 63.23,-56.88 136.56,-100.52 210.52,-141.74 70.08,-39.05 140.78,-77.09 210.39,-117.01 -76.43,116.47 -124.41,248.9 -200,366.58l0 -0.07zm247.61 -428.52c-84.99,43.01 -168.25,89.74 -251.57,135.85 -79.1,43.73 -158.32,88.53 -226.89,147.92 -119.86,103.78 -203.34,242.09 -258.09,389.72 -31.03,83.52 -56.92,171.56 -67.78,260.21 -1,1.21 -1.96,2.34 -2.97,3.55 -8.86,10.74 7.14,23.68 16.49,13.7 2.51,-2.71 5.05,-5.43 7.56,-8.14 3.09,1 6.64,0.08 8.4,-4.05 1.3,-3.13 2.71,-6.27 4.13,-9.36 51.16,-54.87 103.7,-109.67 164.12,-154.18 65.69,-48.28 141.2,-81.44 205.47,-131.84 122.74,-96.31 201.96,-233.66 269.99,-371.35 42.47,-85.91 82.9,-176.95 147.97,-248.65 9.6,-10.56 -3.34,-30.15 -16.75,-23.39l-0.08 0z"/>
  <path class="fil3" d="M1895.52 1035.7c-91.75,3.13 -184.5,0.88 -276.13,-4.97 -90.88,-5.77 -181.92,-19.71 -264.02,-61.06 -46.15,-23.22 -94.09,-55.46 -144.87,-70.24 10.02,-3.59 20.08,-7.14 30.15,-10.65 121.9,-27.9 245.6,-37.5 370.8,-15.49 145.58,25.6 296.59,99.56 446.26,68.45 6.01,-1.26 5.09,-9.44 -1.04,-9.44 -81.68,-0.12 -161.7,-12.11 -240.84,-31.57 -76.47,-18.88 -152.18,-41.76 -230.44,-52.62 -65.15,-9.1 -132.51,-11.2 -199.08,-5.22 19,-5.18 38.09,-10.19 57.3,-14.57 102.1,-23.39 206.09,-28.27 310.33,-18.92 195.95,17.54 385.58,74.96 580.24,101.44 -127.29,89.7 -284.78,119.65 -438.75,124.87l0.07 -0.02zm479.26 -149.63c-214.2,-23.43 -422.01,-89.16 -637.53,-102.36 -100.6,-6.18 -200.33,0.92 -298.35,24.73 -56.01,13.57 -110.38,31.99 -164,52.58 -33.49,8.06 -66.27,18.54 -98.05,31.57 -19.76,-2.26 -39.88,-1.21 -60.52,4.72 -13.57,3.89 -8.06,25.85 5.73,23.89 5.09,-0.71 10.1,-1.13 15.07,-1.34 -0.12,2.63 2.17,5.43 5.43,4.21 3.97,-1.38 7.89,-2.88 11.82,-4.26 75.84,3.34 138.53,53.83 206.76,85.23 80.9,37.29 170.39,50.82 258.51,57.05 174.02,12.24 357.1,18.04 526.66,-29.15 85.73,-23.89 166.33,-62.77 234.78,-120.15 9.14,-7.64 7.43,-25.19 -6.27,-26.69l-0.04 -0.02z"/>
  <path class="fil3" d="M1003.2 754.05c-77.47,136.73 -191.73,247.65 -292.79,366.46 -39.63,46.48 -77.22,94.55 -110.92,145.33 30.82,-131.55 86.95,-253.08 172.98,-360.69 85.77,-107.33 209.1,-212.48 236.75,-353.3 0.8,-4.26 -5.51,-6.18 -7.31,-2.21 -32.03,70.87 -71.66,135.43 -120.65,195.86 -47.07,58.05 -98.85,112.22 -143.62,172.14 -76.39,102.24 -131.26,222.3 -152.84,348.21 5.18,-132.1 30.74,-259.89 88.07,-382.71 35.21,-75.47 80.44,-145.95 134.68,-209.19 56.92,-66.36 124.37,-122.2 192.27,-176.86 50.16,-40.38 100.86,-80.35 148.09,-124.03 -53,124.91 -77.22,261.89 -144.66,380.99l-0.04 0zm190.64 -471.49c-125.66,129.84 -284.44,223.18 -404.21,358.9 -110.84,125.58 -187.71,282.48 -219.59,446.89 -17.92,92.38 -24.93,190.64 -9.27,283.86 2.55,15.2 24.27,12.82 23.72,-2.55 -0.21,-6.23 -0.34,-12.4 -0.46,-18.62 1.63,-1.3 3.17,-3.01 4.35,-5.18 76.13,-137.69 186.47,-251.24 286.15,-371.59 47.4,-57.21 92.67,-116.39 131.64,-179.74 42.47,-68.99 72.2,-142.95 97.35,-219.75 30.9,-94.34 57.47,-189.89 113.84,-272.79 11.02,-16.25 -9.73,-33.79 -23.55,-19.5l0.04 0.07z"/>
  <path class="fil3" d="M1247.89 1357.68c-83.82,19.58 -169.8,36.17 -255.83,41.64 -82.4,5.18 -161.41,-10.9 -242.34,-23.76 -60.98,-9.68 -126.16,-17.83 -185.76,-1.54 3.3,-2.59 6.73,-5.22 10.06,-7.81 126.03,-59.26 258.38,-101.56 395.56,-127.91 42.01,-8.06 84.57,-13.91 127.41,-13.07 38.3,0.76 75.51,8.52 112.88,16.29 62.89,13.07 133.51,28.23 193.36,-3.47 6.43,-3.38 3.01,-13.65 -4.21,-10.86 -74.25,28.86 -147.09,7.98 -222,-6.43 -78.97,-15.16 -156.27,-10.28 -234.7,5.85 -108.5,22.3 -217.03,53.33 -317.35,101.1 75.88,-55.75 155.27,-106.29 242.76,-141.99 172.02,-70.24 357.69,-51.45 537.52,-28.27 91.5,11.86 182.42,27.52 272.58,46.73 -137.15,66.65 -281.43,118.77 -430.02,153.44l0.08 0.08zm480.22 -175.15c-187.97,-41.47 -383.37,-72.92 -576.27,-74.83 -88.58,-0.92 -176.27,10.24 -259.97,40.18 -75.05,26.89 -144.75,66.86 -210.1,112.22 -54.33,37.63 -105.45,79.14 -155.35,122.24 -3.76,2.42 -7.64,4.81 -11.4,7.31 -1.17,0.76 -1.26,2.09 -0.76,3.17 -18.12,15.87 -36.17,31.9 -54.08,48.03 -5.73,5.13 0.88,14.99 7.18,9.9 14.74,-11.7 29.44,-23.55 44.27,-35.33 2.67,3.09 6.51,4.97 11.02,3.97 76.01,-17.46 148.63,-16.33 225.3,-3.89 77.55,12.57 153.52,27.39 232.57,23.35 165.79,-8.6 334.88,-54.83 490.45,-110.96 89.29,-32.24 176.11,-70.7 260.3,-114.59 13.82,-7.18 13.28,-27.11 -3.13,-30.74l-0.03 -0.02z"/>
  <path class="fil3" d="M471.66 1264.92c-18.96,85.32 -56.84,158.53 -99.6,233.86 -25.89,45.52 -57.84,98.47 -69.95,152.76 1.46,-31.44 3.67,-62.81 9.52,-94.55 11.32,-60.8 28.27,-120.4 46.27,-179.53 33.53,-109.88 76.55,-222.46 76.76,-338.69 0.04,-4.63 -6.97,-4.39 -7.85,-0.25 -25.14,118.39 -59.22,232.94 -94.38,348.67 -17.12,56.29 -33.16,113.13 -43.18,171.18 -1.84,10.74 -3.71,21.88 -5.43,33.24 -6.18,-47.27 -12.15,-94.59 -14.2,-142.4 -3.84,-92.04 3.59,-184.8 31.24,-273.08 47.4,-151.42 142.24,-276.76 235.2,-402.45 -8.81,74.04 -17.67,148.13 -26.43,222.13 -10.65,89.74 -18.38,180.74 -37.92,269.11l-0.03 0zm64.77 -264.68c10.78,-91.16 21.55,-182.24 32.28,-273.42 1.54,-12.95 -14.91,-21.42 -23.64,-10.78 -111.96,136.06 -222.05,286.86 -273.58,457.42 -25.85,85.32 -33.37,174.27 -30.36,263.06 3.17,93.46 13.61,190.27 35.33,281.39 0.8,3.21 2.55,5.59 4.76,7.06 0.34,1.76 0.62,3.47 1,5.13 1.76,7.89 14.99,10.19 15.75,0.42 0.42,-4.97 0.71,-9.98 1,-14.99 3.84,7.56 15.87,5.77 18.33,-3.17 11.48,-41.34 20.3,-82.02 38.25,-121.28 15.95,-34.91 35.25,-68.07 54.12,-101.4 40.76,-71.92 73.17,-144.16 90.42,-225.39 18.46,-86.87 25.93,-176.03 36.29,-264.06l0.03 0z"/>
  <path class="fil5" d="M7747.29 2556.57c-78.72,238.09 -179.33,475.92 -339.94,671.02 -66.73,81.06 -142.62,151.93 -223.3,219.04 -60.68,50.49 -122.2,100.35 -189.09,142.32 -77.26,48.44 -159.19,89.41 -241.76,127.87 -191.06,88.95 -389.18,163.24 -578.82,255 -16.54,8.02 -3.47,35.95 13.7,29.28 90.54,-35.25 178.99,-76.85 267.94,-115.77 87.15,-38.05 174.56,-75.67 261.09,-115.01 84.36,-38.38 168.17,-78.6 248.53,-124.87 71.88,-41.43 137.23,-90.7 202.3,-141.9 90.5,-71.33 178.41,-145.5 252.99,-233.62 59.3,-70.08 111.8,-145.91 157.49,-225.51 87.03,-151.6 147.51,-313.59 184.46,-484.23 2.21,-10.28 -12.44,-13.11 -15.62,-3.51l0.02 -0.12z"/>
  <path class="fil5" d="M5309 4142.89c90.16,-38.55 181.62,-77.72 275.8,-105.37 187.51,-55.13 389.47,-47.61 582.87,-41.76 -0.92,2.09 -1.84,4.13 -2.8,6.23 -106.61,81.98 -230.53,113.55 -362.24,133.93 -65.65,10.19 -131.55,19.08 -196.32,34.29 -62.81,14.74 -128.96,34.16 -180.79,74.13 -4.72,3.67 -1.63,13.2 4.85,10.4 63.94,-27.98 126.53,-53.5 194.94,-68.74 70.16,-15.66 141.53,-24.27 212.36,-36.25 104.4,-17.62 221.13,-43.35 307.45,-109.71 -66.03,116.01 -170.8,202.76 -298.05,250.86 -163.79,61.94 -343.78,58.59 -514.13,30.06 -92.63,-15.45 -183.84,-38.09 -274.75,-61.56 82.52,-41.18 166.09,-80.14 250.91,-116.39l-0.09 -0.12zm-297.59 135.93c336.22,87.2 751.96,181.33 1040.07,-77.63 61.8,-55.55 112.76,-127.21 137.31,-207.14 9.56,-6.47 8.98,-25.85 -4.89,-27.39 -102.02,-11.28 -206.14,-9.52 -308.53,-3.17 -98.97,6.1 -199.66,15.53 -295.22,43.1 -99.14,28.65 -195.36,70.2 -290.03,111 -95.97,41.38 -190.52,85.95 -283.56,133.34 -12.53,6.35 -6.97,24.81 4.85,27.85l0 0.04z"/>
  <path class="fil5" d="M6195.89 4199.01c46.07,-63.48 99.31,-122.86 162.83,-169.3 63.64,-46.57 137.61,-74.83 204.34,-116.14 46.94,-29.06 89.29,-63.81 129.04,-101.44 -57.3,101.4 -124.87,194.4 -211.44,275.25 -53.29,49.78 -111.67,93.67 -173.94,131.55 -51.16,31.12 -106.37,60.8 -125.83,120.78 -1.67,5.09 6.05,7.43 8.52,3.13 35.91,-61.6 103.28,-91.88 160.49,-129.46 57.34,-37.67 111.04,-80.98 160.24,-128.79 88.45,-85.99 167.71,-189.85 219.04,-303.4 -43.35,128.79 -90.33,253.54 -169.93,366.16 -44.06,62.39 -96.43,120.06 -156.02,167.89 -64.15,51.41 -137.31,89.54 -210.94,125.24 -69.78,33.83 -140.15,66.65 -209.52,101.36 80.14,-108.16 133.76,-233.4 213.15,-342.82l-0.03 -0.01zm-262.47 400c84.4,-36.79 167.33,-77.35 250.23,-117.31 78.72,-37.92 157.65,-76.76 227.14,-130.3 121.36,-93.55 209.47,-222.46 270.45,-361.91 34.53,-78.93 64.35,-162.5 79.72,-247.44 1.04,-1.08 2.09,-2.17 3.05,-3.3 9.14,-9.86 -5.59,-23.22 -15.16,-14.07 -2.59,2.46 -5.18,4.97 -7.77,7.43 -2.92,-1.17 -6.35,-0.42 -8.27,3.43 -1.46,2.92 -3.01,5.89 -4.51,8.81 -52.41,50.16 -106.11,100.18 -166.88,139.82 -66.07,43.01 -140.78,70.78 -205.55,115.93 -123.74,86.23 -207.72,214.44 -280.97,343.57 -45.65,80.6 -89.7,166.25 -156.44,231.86 -9.82,9.64 1.59,29.28 14.91,23.47l0.05 0.01z"/>
  <path class="fil5" d="M5986.83 3600.65c88.74,2.05 178.11,9.32 266.19,19.96 87.41,10.52 174.44,29.02 251.49,73.42 43.22,24.89 87.79,58.72 135.93,75.71 -9.86,2.92 -19.76,5.77 -29.65,8.64 -119.23,20.26 -239.13,22.72 -358.77,-5.43 -139.11,-32.7 -280.81,-112.3 -426.97,-90.58 -5.85,0.88 -5.43,8.86 0.46,9.18 78.8,4.59 155.39,20.54 230.73,43.68 72.79,22.38 144.62,48.65 219.54,63.44 62.39,12.32 127.29,18.04 191.81,15.99 -18.62,3.93 -37.29,7.68 -56.09,10.9 -99.89,16.91 -200.46,15.95 -300.56,1.26 -188.17,-27.69 -368.04,-93.5 -554.47,-129.75 127.83,-79.6 281.43,-99.85 430.35,-96.47l0.01 0.04zm-470.77 118.15c205.42,34.41 402.37,109.21 609.68,133.8 96.77,11.44 193.44,10.1 289.37,-7.48 54.79,-10.06 108.25,-24.85 161.16,-41.8 32.78,-5.93 65.02,-14.2 96.35,-25.01 18.96,3.21 38.5,3.3 58.72,-1.3 13.28,-2.97 9.18,-24.47 -4.21,-23.39 -4.93,0.38 -9.78,0.54 -14.61,0.54 0.3,-2.59 -1.8,-5.35 -5.01,-4.43 -3.89,1.21 -7.77,2.34 -11.65,3.55 -72.96,-7.39 -130.76,-59.55 -194.9,-93.67 -76.01,-40.42 -161.62,-58.38 -246.35,-69.2 -167.33,-21.34 -343.7,-37.04 -509.91,-0.8 -84.07,18.33 -164,51.45 -233.2,103.07 -9.23,6.93 -8.6,23.93 4.59,26.15l-0.02 -0.04z"/>
  <path class="fil5" d="M6832.59 3921.47c82.27,-127.75 198.62,-228.52 302.69,-337.64 40.76,-42.72 79.68,-87.03 115.01,-134.14 -36.96,125.29 -97.81,239.47 -186.71,338.65 -88.66,98.85 -213.44,193.6 -247.85,327.95 -1,4.05 4.97,6.27 6.93,2.55 34.83,-66.65 76.59,-126.79 127.21,-182.46 48.61,-53.45 101.6,-102.94 148.09,-158.27 79.35,-94.51 138.86,-207.35 166.63,-327.7 -12.28,127.25 -43.93,249.19 -105.99,364.54 -38.13,70.87 -85.65,136.52 -141.49,194.48 -58.63,60.88 -126.71,111.08 -195.24,160.16 -50.62,36.29 -101.78,72.04 -149.72,111.58 57.97,-117.65 88.87,-248.53 160.49,-359.73l-0.05 0.05zm-209.89 444.59c128.37,-118.43 286.78,-199.83 409.85,-324.24 113.84,-115.14 196.65,-262.39 236.41,-419.29 22.34,-88.16 34.53,-182.62 24.55,-273.46 -1.63,-14.79 -22.76,-13.74 -23.05,1.17 -0.12,6.01 -0.38,11.98 -0.58,18 -1.67,1.17 -3.21,2.71 -4.51,4.76 -81.06,128.71 -193.74,232.28 -296.55,342.91 -48.86,52.62 -95.85,107.25 -136.89,166.25 -44.73,64.27 -77.55,134.06 -105.99,206.72 -34.99,89.33 -65.9,180.16 -124.83,257.04 -11.57,15.03 7.56,33.08 21.63,20.08l-0.04 0.04z"/>
  <path class="fil5" d="M6629.55 3325.45c81.98,-14.33 165.83,-25.55 249.19,-26.1 79.8,-0.54 155.23,19.3 232.57,36.17 58.34,12.7 120.86,24.09 179.24,11.7 -3.38,2.34 -6.77,4.67 -10.14,7.02 -124.91,50.28 -254.96,83.82 -388.84,101.78 -41.01,5.47 -82.4,8.73 -123.7,5.59 -36.96,-2.88 -72.42,-12.36 -108.12,-21.97 -59.93,-16.08 -127.29,-34.53 -186.8,-7.27 -6.35,2.92 -3.67,12.99 3.47,10.74 73.29,-23.76 142.4,0.38 213.94,18.38 75.38,18.96 150.22,18.5 226.89,7.23 105.91,-15.57 212.36,-39.55 311.79,-80.14 -76.3,49.61 -155.73,94.05 -242.05,123.7 -169.85,58.34 -348.04,30.06 -520.35,-2.21 -87.66,-16.41 -174.52,-36.54 -260.51,-60.06 136.06,-56.79 278.17,-99.14 423.47,-124.53l-0.04 -0.02zm-473.08 142.7c179.16,50.36 366.04,91.42 552.13,103.86 85.45,5.73 170.76,-0.21 253.08,-24.55 73.92,-21.88 143.37,-56.55 209.01,-96.72 54.5,-33.37 106.11,-70.66 156.61,-109.5 3.76,-2.13 7.64,-4.21 11.4,-6.39 1.17,-0.67 1.3,-2 0.88,-3.01 18.42,-14.33 36.63,-28.82 54.83,-43.35 5.81,-4.63 0,-14.53 -6.35,-10.02 -14.87,10.52 -29.74,21.18 -44.73,31.74 -2.34,-3.17 -5.97,-5.22 -10.4,-4.47 -74.29,12.7 -144.33,7.64 -217.58,-8.6 -74.17,-16.41 -146.71,-34.87 -223.22,-35.29 -160.49,-0.84 -326.28,34.53 -479.42,80.14 -87.95,26.23 -173.94,58.63 -257.59,96.31 -13.74,6.23 -14.33,25.43 1.3,29.82l0.05 0.02z"/>
  <path class="fil5" d="M7373.65 3457.54c22.97,-81.31 63.48,-149.88 108.96,-220.25 27.48,-42.56 61.22,-91.84 75.93,-143.58 -3.17,30.28 -7.02,60.43 -14.45,90.74 -14.24,58.05 -33.83,114.68 -54.54,170.68 -38.38,104.28 -86.07,210.56 -92.67,322.73 -0.25,4.47 6.51,4.59 7.6,0.62 30.78,-112.92 69.91,-221.54 110.21,-331.29 19.62,-53.41 38.21,-107.37 51.08,-162.87 2.38,-10.32 4.81,-20.96 7.1,-31.82 3.34,45.98 6.56,91.96 5.89,138.23 -1.3,89.08 -13.61,178.24 -45.11,261.89 -54.04,143.5 -152.43,259.34 -249.11,375.52 12.57,-71 25.14,-141.99 37.71,-212.98 15.25,-86.03 27.65,-173.4 51.41,-257.63l0 0.01zm-77.09 251.87c-15.41,87.37 -30.78,174.77 -46.19,262.1 -2.17,12.4 13.2,21.51 22.26,11.7 115.51,-125.16 229.98,-264.64 289.15,-426.42 29.61,-80.94 41.76,-166.33 43.77,-252.24 2.05,-90.37 -2.71,-184.38 -18.71,-273.46 -0.58,-3.17 -2.17,-5.55 -4.17,-7.1 -0.25,-1.67 -0.46,-3.34 -0.71,-4.97 -1.26,-7.81 -13.91,-10.69 -15.2,-1.3 -0.62,4.81 -1.21,9.64 -1.76,14.41 -3.26,-7.48 -15.03,-6.39 -17.92,2.09 -13.32,39.26 -24.05,78.05 -43.56,114.97 -17.33,32.78 -37.79,63.77 -57.88,94.88 -43.27,67.15 -78.47,135.1 -99.64,212.52 -22.59,82.82 -34.62,168.47 -49.49,252.86l0.05 -0.04z"/>
  <path class="fil6" d="M4577.48 1915.67l-11.17 0c29.01,-44.1 46.27,-98.16 46.27,-156.29 0,-23.72 -2.86,-46.81 -8.31,-68.84l0.43 1.96c-25.78,-100.33 -106.31,-176.68 -207.13,-196l-1.64 -0.26c-12.39,-1.86 -26.74,-2.92 -41.29,-2.92 -108.17,0 -202.73,58.03 -254.35,144.65l-0.74 1.38 -157.41 226.55 -157.46 -226.55c-52.36,-88 -146.97,-146.03 -255.09,-146.03 -14.56,0 -28.86,1.06 -42.89,3.07l1.59 -0.21c-102.45,19.59 -182.93,95.94 -208.28,194.42l-0.43 1.85c-5.03,20.07 -7.89,43.15 -7.89,66.87 0,58.08 17.26,112.19 46.91,157.35l-0.69 -1.11 -11.22 0c-94.98,0.11 -171.97,77.08 -172.07,172.07l0 158.83c0.11,71.1 43.26,132.1 104.78,158.31l1.11 0.43 0 529.56c0.11,94.99 77.09,171.97 172.07,172.07l1058.91 0c94.99,-0.05 172.03,-77.08 172.07,-172.07l0 -529.56c62.63,-26.63 105.78,-87.68 105.89,-158.73l0 -158.83c-0.11,-94.99 -77.08,-171.97 -172.07,-172.07l0 0 0.11 0.11zm39.71 172.07l0 158.83c-0.31,21.82 -17.89,39.4 -39.65,39.71l-569.22 0 0 -238.26 569.17 0c21.82,0.32 39.4,17.9 39.71,39.66l0 0.05 0 0.01zm-408.89 -372.9c28.8,-53.42 84.34,-89.11 148.24,-89.11 5.5,0 10.96,0.27 16.36,0.8l-0.69 -0.05c50.99,10.32 90.96,48.44 103.93,97.52l0.21 0.95c1.12,7.89 1.75,17.05 1.75,26.32 0,67.77 -33.62,127.7 -85.13,163.97l-0.64 0.43 -323.6 0 139.56 -200.82zm-800.33 10.06c13.13,-49.98 53.05,-88.11 103.19,-98.33l0.85 -0.16c4.87,-0.53 10.54,-0.8 16.26,-0.8 63.75,0 119.18,35.74 147.35,88.26l0.42 0.9 139.57 200.82 -323.65 0c-52.1,-36.64 -85.73,-96.52 -85.73,-164.18 0,-9.37 0.64,-18.58 1.91,-27.58l-0.11 1.06 -0.05 0zm-140.88 362.84c0.31,-21.82 17.89,-39.4 39.65,-39.72l569.22 0 0 238.26 -569.17 0c-21.82,-0.32 -39.4,-17.89 -39.71,-39.66l0 -0.05 0 -158.83zm105.88 847.12l0 -516.22 502.99 0 0 555.92 -463.27 0c-21.82,-0.31 -39.4,-17.89 -39.71,-39.65l0 -0.06 -0.01 0zm1138.33 0c-0.31,21.82 -17.89,39.4 -39.65,39.71l-463.33 0 0 -555.92 502.98 0 0 516.22z"/>
 </g>
</svg>
