<?xml version="1.0" encoding="UTF-8"?>
<!DOCTYPE svg PUBLIC "-//W3C//DTD SVG 1.1//EN" "http://www.w3.org/Graphics/SVG/1.1/DTD/svg11.dtd">
<!-- Creator: CorelDRAW -->
<svg xmlns="http://www.w3.org/2000/svg" xml:space="preserve" width="96mm" height="56mm" version="1.1" style="shape-rendering:geometricPrecision; text-rendering:geometricPrecision; image-rendering:optimizeQuality; fill-rule:evenodd; clip-rule:evenodd"
viewBox="0 0 3329.11 1941.98"
 xmlns:xlink="http://www.w3.org/1999/xlink"
 xmlns:xodm="http://www.corel.com/coreldraw/odm/2003">
 <defs>
  <style type="text/css">
   <![CDATA[
    .fil4 {fill:#818181;fill-rule:nonzero}
    .fil3 {fill:#BB8071;fill-rule:nonzero}
    .fil1 {fill:#BFC5CD;fill-rule:nonzero}
    .fil2 {fill:#EDC1B1;fill-rule:nonzero}
    .fil0 {fill:white;fill-rule:nonzero}
   ]]>
  </style>
 </defs>
 <g id="Layer_x0020_1">
  <metadata id="CorelCorpID_0Corel-Layer"/>
  <polygon class="fil0" points="-0,0 3329.1,0 3329.1,1941.98 -0,1941.98 "/>
  <path class="fil1" d="M3329.11 1561.19c-117.6,-21.45 -228.96,26.39 -316.93,114.69 -62.68,62.93 -142.53,107.51 -266.93,121.36 -94.79,10.56 -205.61,77.21 -196.24,144.74l780.1 0 0 -380.79z"/>
  <path class="fil2" d="M807.46 0c22.54,17.44 35.02,42.47 35.51,77.88 2.43,172.59 -166.65,209.31 -291.71,222.42 -84.69,8.88 -237.49,96.53 -310.42,166.03 -62.14,59.22 -162.28,58.81 -240.84,35.79l0 -502.11 807.46 0z"/>
  <path class="fil2" d="M654.47 435.37c6.95,-22.31 -13.96,-36.14 -36.15,-21.36 -30.89,20.59 -26.1,39.05 -12.96,45.72 14.41,18.7 45.09,-1.26 49.1,-24.35z"/>
  <path class="fil2" d="M553.43 425.62c27.64,-7 30.39,-43.31 6.09,-62.33 -81.22,-63.63 -175.26,98.35 -6.09,62.33z"/>
  <path class="fil2" d="M554.7 523.16c15.48,-27.56 -10.12,-65.98 -46.25,-43.5 -100.67,62.63 -8.75,136.98 46.25,43.5z"/>
  <path class="fil2" d="M2652.83 18.24c-47.71,87.24 -53.35,186.6 -13.05,262.01 25.61,47.92 67.31,62.22 105.19,96.3 49.17,44.25 69.79,117.33 119.84,163.23 110.66,101.49 300.23,161.32 464.31,87.52l0 -26.56c-171.46,77.5 -342.58,35.07 -451.51,-101.58 -31.62,-39.69 -53.34,-84.91 -81.43,-126.98 -23.18,-34.71 -60.63,-42.74 -91.87,-68.31 -74.38,-60.85 -86.61,-178.78 -35.09,-278.39 6.15,-11.89 -9.86,-19.17 -16.38,-7.24z"/>
  <path class="fil2" d="M-0 1334.01c32.63,-12.81 67.1,-20.47 102.8,-20.81 74.35,-0.71 123.51,37.46 169.87,91.9 68,79.84 126.84,182.87 240.19,191.73 47.31,3.68 100.22,-3.33 143.89,18.99 47.26,24.14 65.58,83.51 109.94,113.47 47.71,32.25 98.1,52.54 135.55,98.5 28.37,34.81 46.57,74.36 64.99,114.19l24.2 0c-17.2,-45.57 -40.47,-90.88 -68.74,-128.87 -33.75,-45.36 -76.39,-68.31 -124,-96.27 -51.48,-30.22 -70.94,-89.14 -120.73,-119.35 -41.78,-25.34 -92.69,-22.39 -139.64,-23.5 -31.1,-0.74 -64.64,-2.01 -92.89,-16.83 -39.27,-20.59 -68.4,-64.58 -97.16,-97.05 -39.14,-44.2 -79.15,-98.21 -129.6,-130.41 -67.92,-43.37 -148.03,-34.13 -218.66,-3.32l0 7.63z"/>
  <path class="fil3" d="M-0 1126.76c93.95,-59.55 155.85,-167.26 242.48,-238.1 50.88,-41.6 85.21,-87.02 103.75,-153.13 21.48,-76.61 35.33,-167.59 33.38,-247.76 -1.65,-68.73 -19.12,-139.89 -64.25,-191.26 -43.26,-49.23 -103.24,-62.06 -162.56,-75.53 -41.47,-9.41 -82.18,-20.2 -118.3,-44.87 -12.08,-8.26 -23.34,-17.79 -34.51,-27.47l0 40.7c4.31,3.59 8.52,6.98 12.59,10.05 41.94,31.64 89.41,43.8 138.56,57 63.26,16.99 124.55,38.45 159.26,102.07 33.48,61.39 33.06,134.69 27.14,203.21 -5.53,64.21 -12,133.82 -33.42,194.71 -24,68.2 -77.41,100.34 -124.09,148.59 -61.95,64.05 -109.94,147.61 -180.03,201.46l0 20.34z"/>
  <path class="fil1" d="M3329.11 853.31c-69.52,44.88 -111.88,135.17 -135.88,209.85 -40.57,126.14 -38.13,260.66 -73.35,387.49 -22.37,80.55 -80.13,95.55 -154.8,104.29 -45.19,5.28 -93.16,12.33 -126.57,46.43 -23.95,24.44 -35.73,57.3 -65.68,76.38 -30.77,19.6 -68.94,25.43 -103.67,34.39 -60.04,15.49 -120.58,36.79 -168.53,77.44 -45.7,38.73 -75.65,94.02 -85.92,152.41l36.27 0c5.17,-24.78 14.34,-48.88 28.06,-71.5 45.59,-75.19 128.27,-103.07 208.97,-123.45 33.66,-8.49 68.33,-16.25 98.67,-33.89 29.3,-17.03 44.32,-41.32 63.33,-68.1 44.53,-62.76 120.38,-50.55 187.38,-66.33 141.75,-33.4 132.69,-213.91 150.07,-328.96 10.9,-72.08 24.43,-143.97 49.12,-212.77 19.32,-53.78 48.44,-114.79 92.53,-155.76l0 -27.91z"/>
  <path class="fil2" d="M2962.99 1355.08c-8.95,1.9 -17.18,7.62 -22.53,17.01 -12.14,21.16 -27.31,50.35 -23.17,77.16 4.2,27.11 26.19,44.7 48.48,33.53 26.25,-13.14 42.28,-53.43 40.06,-86.15 -1.09,-15.99 -6.98,-30.89 -19.7,-37.91 -7.39,-4.07 -15.52,-5.24 -23.14,-3.63z"/>
  <path class="fil2" d="M3135.52 1359.13c-19.68,-11.5 -57.25,-0.67 -68.55,17.19 -10.39,16.43 13.58,41 25.59,53.19 8.06,8.2 18.71,14.83 30.77,16.48 55.09,7.54 43.11,-68.78 12.19,-86.86z"/>
  <path class="fil2" d="M3136.27 1263.16c-7.17,-20.05 -36.66,-20 -38.05,4.27 -19.62,27.59 2.4,42.77 15.63,40.42 20.75,5.71 32.15,-25.65 22.41,-44.69z"/>
  <path class="fil2" d="M3032.47 1235.71c-18.97,-19.16 -49.88,-3.96 -53.71,24.97 -12.81,96.74 164.34,95.56 53.71,-24.97z"/>
  <path class="fil2" d="M3095.09 1473.6c-13.36,-26.74 -65.21,-26.61 -58.61,13.1 -27.08,108.83 102.56,79.59 58.61,-13.1z"/>
  <path class="fil4" d="M363.41 1609.96c-45.46,6.1 -89.14,22.3 -131.67,38.88 -43.63,17.01 -86.5,35.92 -130.13,52.94 -33.37,13.01 -67.37,24.11 -101.61,34.46l0 14.08c30.71,-9.27 61.23,-19.15 91.27,-30.41 42.78,-16.03 84.39,-35 126.55,-52.59 48.08,-20.06 96.95,-37.89 146.77,-53.17 2.41,-0.74 1.2,-4.5 -1.17,-4.18z"/>
  <path class="fil4" d="M531.08 1635.15c-25.94,6.81 -53.4,6.08 -79.56,0.98 -25.02,-4.9 -49,-13.79 -72.45,-23.67 23.7,-5.58 47.35,-11.44 70.5,-18.96 29.72,-9.66 58.55,-21.86 86.72,-35.31 57.82,-27.59 114.58,-58.83 179.24,-65.06 -21.67,11.58 -42.09,25.45 -60.8,41.37 -20.58,17.51 -38.27,37.4 -56.57,57.16 -18.79,20.3 -39.97,36.37 -67.09,43.49zm-126.81 -87.98c17.58,-18.4 40.72,-30.27 63.7,-40.47 25.4,-11.28 51.76,-21.34 79.4,-25.28 26.6,-3.8 53.35,-1.67 79.95,1.03 26.24,2.68 52.64,6.85 79.01,8.93 -58.63,4.11 -112.76,33.62 -165.16,58.15 -29.09,13.63 -58.81,25.85 -89.34,35.87 -26.22,8.6 -53.06,14.91 -79.95,20.99 7.67,-21.35 16.48,-42.59 32.38,-59.22zm185.51 70.15c20.82,-18.73 37.55,-41.55 57.81,-60.89 24.09,-22.99 50.79,-43.1 78.63,-61.31 1.03,-0.67 1.38,-1.69 1.27,-2.69 3.16,-0.69 3.45,-5.35 -0.17,-6.07 -30.91,-6.21 -62.98,-8.34 -94.27,-12.05 -27.34,-3.23 -54.85,-6.68 -82.42,-4.05 -28.79,2.75 -56.52,12.67 -82.88,24.09 -23.86,10.32 -48.03,22.19 -67.09,40.23 -21.79,20.63 -32.42,47.77 -42.29,75.44 -1.09,3.03 0.31,6.19 3.24,7.5 48.8,21.86 102.07,41.94 156.47,33.31 26.74,-4.23 51.53,-15.36 71.71,-33.51z"/>
  <path class="fil4" d="M13.09 1935.68c-4.34,0.07 -8.71,0.17 -13.09,0.28l0 6.02 112.74 0c1.34,-1.36 1.94,-3.61 1.05,-5.23 -25.84,-47.75 -66.14,-87.53 -113.8,-113.2l0 9.08c20.31,11.21 39.14,25.07 55.8,41.28 16.3,15.87 30.49,33.77 42.13,53.25 -5.32,-3.24 -11.37,-5.68 -16.76,-7.8 -9.55,-3.77 -19.52,-6.41 -29.56,-8.62 -17.16,-3.8 -34.65,-6.32 -51.61,-10.88l0 5.59c8.5,2.37 17.18,4.32 26.07,6.03 13.8,2.67 27.7,5.04 41.16,9.11 6.41,1.95 12.71,4.23 18.79,7.06 4.04,1.89 7.82,4.33 11.71,6.51 -28.21,0.37 -56.41,1.05 -84.64,1.52z"/>
  <path class="fil4" d="M268.2 1879.03c-13.85,-0.33 -27.75,-1.71 -41.29,-4.74 -10.74,-2.4 -21.2,-5.75 -31.98,-8.03 -11.28,-2.39 -22.63,-4.49 -33.76,-7.46 -10.52,-2.82 -19.87,-7.46 -29.48,-12.53 -21.66,-11.39 -42.3,-24.78 -60.47,-41.23 -19.44,-17.62 -35.43,-38.66 -50.44,-60.09 6.75,-0.46 13.49,-1.14 20.22,-1.95 20.76,5.05 41.12,12 60.73,20.35 28.03,11.93 53.06,30.72 82.77,38.38 15.4,3.97 31.09,6.59 46.35,11.14 14.58,4.36 28.88,9.7 42.82,15.83 14.89,6.55 29.4,14.02 43.31,22.46 10.25,6.24 19.71,13.97 29.86,20.36 0.17,0.34 0.35,0.66 0.52,1 -26.22,3.72 -52.65,7.12 -79.16,6.51zm-249.93 -140.72c-0.64,0.13 -1.26,0.31 -1.89,0.44 -0.31,-0.37 -0.65,-0.67 -0.99,-0.92 0.96,0.16 1.92,0.32 2.87,0.48zm102.18 -6.28c34.61,-3.35 64.79,8.35 95.37,23.29 48.88,23.88 95.42,57.38 124.15,104.07 -6.44,-4.58 -13.33,-8.65 -19.79,-12.59 -13.4,-8.17 -27.34,-15.49 -41.64,-21.96 -28.73,-12.98 -58.01,-20.31 -88.54,-27.43 -32.11,-7.49 -58.89,-27.56 -89.13,-39.96 -16.59,-6.8 -33.66,-11.85 -51.04,-15.58 23.56,-3.18 47.01,-7.56 70.63,-9.85zm240.55 142.73c-21.59,-46.14 -59.47,-81.13 -102.39,-107.46 -21.36,-13.1 -43.93,-24.55 -67.19,-33.87 -25.22,-10.12 -49.93,-13.73 -76.94,-10.53 -16.53,1.96 -32.96,4.73 -49.37,7.35 -13.86,2.21 -27.84,4.11 -41.61,6.95 -4.04,-0.59 -8.1,-1.12 -12.16,-1.58 -0.98,-0.11 -1.15,1.37 -0.18,1.52 0.25,0.03 0.5,0.09 0.75,0.12 -3.11,0.87 -5.62,4.94 -3.34,8.62 27.38,44.32 62.8,79.5 108.34,104.98 10.42,5.82 21.16,12.3 32.53,16.09 10.67,3.55 21.82,5.75 32.8,8.05 24.87,5.23 49.07,13.09 74.58,14.73 33.42,2.14 66.81,-2.46 99.81,-7.17 3.54,-0.5 5.93,-4.47 4.38,-7.8z"/>
  <path class="fil4" d="M409.67 1792.81c-47.49,-13.57 -91.47,-40.58 -126.78,-74.91 -18.3,-17.81 -34.18,-37.9 -47.84,-59.47 2.15,-0.31 4.31,-0.61 6.46,-0.93 23.39,3.66 46.28,10.55 67.59,20.95 14.18,6.9 27.05,15.94 40.63,23.88 12.15,7.11 24.98,12.7 38.28,17.29 28.98,10 58.45,18.21 87.14,29.1 26.45,10.03 52,21.75 77.11,34.71 -46.79,12.54 -94.71,23.06 -142.6,9.38zm-112.04 -140.05c21.85,0.43 43.55,3.88 64.58,9.73 47.65,13.26 94.51,35.98 134.79,64.6 19.5,13.85 37.27,29.96 52.15,48.6 -23.28,-12.17 -47.5,-22.66 -72.02,-31.98 -29.15,-11.08 -59.15,-19.38 -88.57,-29.64 -15.4,-5.37 -29.72,-12.11 -43.64,-20.61 -11.99,-7.33 -23.81,-14.81 -36.59,-20.74 -18.17,-8.42 -37.35,-13.96 -57.02,-16.58 15.33,-2.09 30.67,-3.68 46.32,-3.38zm266.68 129.86c-30.2,-42.74 -74.71,-72.12 -120.9,-95.23 -43.22,-21.61 -90.1,-38.73 -138.81,-40.73 -24.03,-0.98 -48.84,1.19 -72.04,7.83 -0.01,-0.02 -0.04,-0.05 -0.05,-0.06 -2.89,-4.71 -11.28,0.28 -8.41,5.08 25.85,43.22 61.89,80.02 104.5,106.9 43.49,27.45 93.15,45.82 145.13,41.53 30.36,-2.49 59.85,-10.88 89.05,-19.13 2.68,-0.77 2.84,-4.33 1.53,-6.19z"/>
  <path class="fil4" d="M57.28 1639.21c2.51,-25.46 8.68,-50.13 19.4,-73.4 10.55,-22.92 25.48,-43.93 44.2,-60.9 21.65,-19.62 48.09,-29.11 73.14,-43.24 9.84,-5.54 18.9,-12.28 27.66,-19.36 3.45,-2.8 6.98,-6.16 10.68,-9.21 -12.8,25.49 -24.53,51.49 -37.8,76.74 -14.02,26.7 -29.91,52.33 -46.06,77.76 -15.35,24.17 -31.35,47.97 -49.23,70.36 -9.3,11.63 -19.12,22.83 -29.53,33.49 -5.75,5.9 -11.86,11.35 -17.96,16.78 2.9,-22.88 3.22,-46.02 5.49,-69.01zm156.08 -77.02c-3.72,16.07 -7.06,32.09 -15.68,46.4 -7.93,13.16 -18.63,24.14 -29.59,34.79 -11.73,11.4 -23.5,22.79 -36.03,33.31 -23.9,20.06 -49.47,34.28 -79.31,41.4 19.15,-15.04 35.83,-34.97 50.56,-53.4 18.51,-23.18 34.97,-47.92 50.72,-73.05 32.08,-51.15 61.05,-104.32 81.87,-161.12 0.66,29.37 -5.3,59 -11.85,87.47 -3.41,14.77 -7.28,29.42 -10.68,44.19zm-97.06 139.34c23.17,-15.82 43.49,-35.79 63.43,-55.41 17.86,-17.54 32.9,-35.54 40.1,-59.96 7.17,-24.33 12.83,-49.39 18.29,-74.15 6.34,-28.69 10.12,-57.35 8.15,-86.79 -0.44,-6.7 -10.3,-5.28 -10.46,1.06 -0.23,0.44 -0.45,0.89 -0.67,1.34 -4.28,2.44 -8.41,5.57 -12.42,7.94 -9.43,5.54 -18.79,11.24 -28.43,16.44 -25.34,13.69 -52.63,21.64 -75.57,39.79 -39.65,31.37 -64.34,79.52 -72.47,128.91 -5.47,33.19 -3.84,67.04 -8.53,100.32 -0.5,0.48 -1,0.93 -1.51,1.4 -1.98,1.92 -0.93,4.44 1,5.08 0.72,2.79 3.57,5.14 6.51,4.49 25.98,-5.75 50.54,-15.42 72.57,-30.46z"/>
  <path class="fil4" d="M257.93 1527.11c5.1,-14.45 10.45,-28.2 19.93,-40.42 19.19,-24.75 43.38,-46.81 67.06,-67.2 22.44,-19.33 46.26,-37.08 71.75,-52.15 -2.72,3.43 -5.21,7.07 -8.1,10.28 -4.66,5.19 -9.43,10.2 -13.76,15.68 -8.17,10.36 -15.02,21.68 -21.07,33.37 -12.7,24.57 -21.86,50.73 -33.17,75.92 -12.35,27.54 -28.71,51.9 -47.37,75.52 -17.47,22.13 -39.32,44.48 -50.94,70.53 -0.12,0.05 -0.26,0.1 -0.38,0.16 -5,-26.61 -4.07,-52.16 2.46,-78.65 3.6,-14.61 8.58,-28.87 13.58,-43.04zm123.7 0.38c-19.05,24.14 -40.14,48.09 -62.06,69.67 -20.75,20.42 -44.65,37.09 -71.19,48.87 7.34,-10.61 14.12,-21.58 21.92,-31.89 9.19,-12.13 18.86,-23.9 28.28,-35.86 17.62,-22.36 33.13,-45.56 45,-71.48 11.5,-25.13 20.63,-51.32 33.33,-75.9 6.72,-12.99 14.47,-25.46 23.83,-36.72 5.1,-6.16 12.28,-12.67 17.42,-19.88 2.08,24.38 -1.54,48.76 -6.78,72.72 -6.15,28.13 -11.52,57.36 -29.75,80.47zm-137.52 130.19c30.05,-12.8 57.9,-30.46 81.05,-53.58 11.72,-11.68 22.43,-24.32 33.35,-36.74 10.77,-12.23 22.09,-24.17 31.98,-37.14 17.97,-23.6 23.39,-53.78 29.64,-82.14 6.45,-29.23 10.42,-59.21 5.1,-88.94 -0.46,-2.59 -3.57,-4.99 -6.23,-3.49 -29.49,16.65 -56.62,36.79 -81.71,59.5 -12.81,11.61 -25.06,23.79 -37.07,36.24 -10.72,11.1 -21.9,22.17 -30.87,34.77 -8.89,12.48 -13.86,26.72 -18.83,41.08 -5.03,14.51 -9.7,29.12 -13.47,44.01 -6.75,26.59 -10.78,56.73 0.18,82.75 0.22,0.55 0.59,0.94 1.03,1.21 0.91,2.09 3.16,3.62 5.84,2.47z"/>
  <path class="fil3" d="M2933.26 325.4c45.74,-3.32 90.34,-16.78 133.8,-30.73 44.59,-14.3 88.55,-30.54 133.14,-44.85 42.38,-13.6 85.55,-24.2 128.91,-34.05l0 -13.85c-39.46,8.96 -78.78,18.57 -117.47,30.43 -43.69,13.37 -86.39,29.76 -129.54,44.74 -49.23,17.08 -99.08,31.87 -149.75,44.07 -2.45,0.59 -1.48,4.42 0.92,4.24z"/>
  <path class="fil3" d="M2767.46 289.98c26.3,-5.2 53.67,-2.79 79.47,3.92 24.66,6.41 48.05,16.76 70.86,28.08 -24,4.1 -47.96,8.5 -71.54,14.6 -30.24,7.82 -59.77,18.24 -88.73,29.92 -59.38,23.99 -117.97,51.69 -182.88,53.94 22.34,-10.22 43.56,-22.82 63.24,-37.56 21.6,-16.22 40.48,-34.99 59.96,-53.58 19.99,-19.1 42.12,-33.86 69.63,-39.31zm121.19 95.61c-18.68,17.28 -42.5,27.71 -66.08,36.49 -26.03,9.7 -52.96,18.11 -80.8,20.36 -26.77,2.17 -53.35,-1.6 -79.73,-5.93 -26.02,-4.28 -52.12,-10.06 -78.32,-13.76 58.78,-0.5 114.6,-26.63 168.41,-47.9 29.88,-11.82 60.27,-22.2 91.37,-30.33 26.7,-6.97 53.88,-11.63 81.1,-16.06 -8.98,20.86 -19.06,41.51 -35.95,57.15zm-180.86 -81.39c-21.93,17.41 -40.03,39.16 -61.44,57.23 -25.44,21.47 -53.34,39.91 -82.23,56.37 -1.08,0.61 -1.48,1.6 -1.45,2.62 -3.18,0.49 -3.76,5.12 -0.19,6.05 30.48,8.1 62.34,12.2 93.37,17.81 27.08,4.9 54.32,10.03 82,9.09 28.89,-0.97 57.19,-9.18 84.22,-18.95 24.44,-8.86 49.29,-19.2 69.43,-36.05 23.01,-19.24 35.28,-45.69 46.84,-72.71 1.27,-2.96 0.06,-6.18 -2.78,-7.68 -47.38,-24.81 -99.31,-48.1 -154.13,-42.84 -26.95,2.59 -52.37,12.18 -73.64,29.05z"/>
  <path class="fil3" d="M3302.89 21.77c8.67,0.39 17.43,0.64 26.22,1.03l0 -8.87 -13.24 -0.59c-36.5,-1.63 -72.96,-3.61 -109.45,-4.99 -2.87,-0.1 -5.15,3.66 -3.98,6.18 26.11,56.21 71.66,103.22 126.67,131.25l0 -9.11c-27.21,-14.22 -51.95,-33.1 -72.62,-55.85 -15.3,-16.85 -28.36,-35.57 -38.79,-55.74 5.1,3.56 11,6.36 16.25,8.81 9.31,4.36 19.11,7.6 28.97,10.42 21.93,6.3 44.55,10.45 65.57,19.65l0.62 0.28 0 -5.71c-12.99,-5.55 -26.55,-9.76 -40.65,-13.39 -13.6,-3.5 -27.33,-6.73 -40.52,-11.61 -6.28,-2.34 -12.43,-5.01 -18.31,-8.21 -3.93,-2.13 -7.54,-4.8 -11.29,-7.21 28.19,1.36 56.37,2.4 84.56,3.67z"/>
  <path class="fil3" d="M3044.79 62.68c13.82,1.18 27.6,3.42 40.93,7.25 10.57,3.06 20.81,7.04 31.43,9.98 11.1,3.07 22.32,5.87 33.24,9.52 10.34,3.45 19.38,8.66 28.67,14.31 20.91,12.7 40.7,27.33 57.83,44.86 18.32,18.77 32.98,40.75 46.66,63.07 -6.78,0.05 -13.53,0.31 -20.31,0.71 -20.42,-6.33 -40.3,-14.51 -59.36,-24.04 -27.25,-13.62 -51.09,-33.91 -80.28,-43.38 -15.13,-4.9 -30.61,-8.48 -45.57,-13.97 -14.3,-5.23 -28.24,-11.44 -41.77,-18.41 -14.47,-7.45 -28.49,-15.81 -41.85,-25.08 -9.85,-6.85 -18.81,-15.14 -28.56,-22.14 -0.15,-0.35 -0.31,-0.7 -0.45,-1.04 26.39,-2.09 52.97,-3.88 79.4,-1.64zm240.84 155.79c0.65,-0.11 1.27,-0.22 1.91,-0.33 0.29,0.39 0.6,0.72 0.93,0.98 -0.94,-0.21 -1.89,-0.43 -2.84,-0.65zm-102.37 0c-34.76,1.22 -64.15,-12.32 -93.76,-29.1 -47.32,-26.84 -91.72,-63.11 -117.53,-111.49 6.13,4.98 12.77,9.46 18.98,13.77 12.88,8.99 26.34,17.14 40.22,24.47 27.87,14.72 56.65,23.83 86.68,32.81 31.6,9.45 57.1,31.12 86.53,45.35 16.14,7.8 32.86,13.89 49.97,18.68 -23.7,1.74 -47.38,4.66 -71.09,5.5zm-231.34 -157.21c18.72,47.39 54.38,84.63 95.61,113.54 20.52,14.39 42.34,27.19 65,37.92 24.55,11.64 48.98,16.77 76.14,15.23 16.6,-0.94 33.18,-2.69 49.73,-4.31 13.97,-1.36 28.04,-2.4 41.95,-4.38 4,0.82 8.01,1.59 12.05,2.31 0.97,0.17 1.23,-1.3 0.28,-1.49 -0.26,-0.06 -0.5,-0.12 -0.75,-0.18 3.16,-0.66 5.91,-4.59 3.87,-8.39 -24.61,-45.92 -57.81,-83.2 -101.71,-111.42 -10.05,-6.46 -20.37,-13.57 -31.49,-18.06 -10.42,-4.2 -21.41,-7.07 -32.24,-10.03 -24.5,-6.74 -48.18,-16.09 -73.52,-19.29 -33.23,-4.19 -66.84,-1.63 -100.07,1.04 -3.56,0.28 -6.19,4.1 -4.84,7.51z"/>
  <path class="fil3" d="M2898.3 140.07c46.57,16.45 88.82,46.11 121.95,82.54 17.19,18.89 31.8,39.92 44.09,62.27 -2.15,0.19 -4.33,0.37 -6.48,0.54 -23.13,-5.08 -45.55,-13.36 -66.18,-25.04 -13.74,-7.77 -26.01,-17.57 -39.09,-26.33 -11.7,-7.84 -24.16,-14.2 -37.15,-19.6 -28.3,-11.76 -57.23,-21.76 -85.18,-34.39 -25.79,-11.65 -50.59,-24.91 -74.83,-39.37 47.46,-9.65 95.93,-17.21 142.89,-0.62zm103.24 146.66c-21.78,-1.78 -43.23,-6.55 -63.87,-13.68 -46.73,-16.15 -92.11,-41.71 -130.57,-72.74 -18.6,-15.01 -35.35,-32.18 -49.07,-51.7 22.5,13.58 46.02,25.52 69.93,36.32 28.42,12.86 57.85,22.97 86.59,35.03 15.05,6.3 28.91,13.91 42.28,23.26 11.52,8.05 22.86,16.25 35.26,22.94 17.62,9.51 36.42,16.22 55.89,20.04 -15.44,1.15 -30.83,1.8 -46.44,0.54zm-258.2 -145.97c27.52,44.51 70.13,76.56 114.82,102.46 41.8,24.22 87.55,44.18 136.05,49.16 23.92,2.46 48.81,1.82 72.4,-3.39 0,0.02 0.01,0.05 0.02,0.06 2.61,4.88 11.28,0.42 8.71,-4.55 -23.16,-44.73 -56.88,-83.66 -97.75,-113.11 -41.73,-30.05 -90.16,-51.43 -142.32,-50.35 -30.46,0.63 -60.4,7.19 -90.05,13.65 -2.72,0.6 -3.09,4.15 -1.89,6.08z"/>
  <path class="fil3" d="M3240.62 314.98c-4.07,25.25 -11.74,49.5 -23.87,72.07 -11.94,22.23 -28.13,42.29 -47.86,58.09 -22.81,18.25 -49.78,26.1 -75.66,38.66 -10.15,4.93 -19.61,11.09 -28.8,17.64 -3.61,2.58 -7.34,5.71 -11.2,8.52 14.33,-24.65 27.64,-49.87 42.43,-74.27 15.64,-25.79 33.07,-50.39 50.74,-74.78 16.81,-23.18 34.23,-45.96 53.45,-67.2 9.99,-11.06 20.48,-21.62 31.54,-31.61 6.09,-5.53 12.52,-10.6 18.95,-15.66 -4.3,22.67 -6.04,45.74 -9.71,68.55zm-160.5 67.31c4.69,-15.82 9,-31.6 18.48,-45.35 8.74,-12.66 20.09,-22.96 31.68,-32.92 12.4,-10.66 24.86,-21.3 38.01,-31.04 25.08,-18.56 51.48,-31.18 81.7,-36.46 -20.03,13.84 -37.91,32.7 -53.74,50.21 -19.89,22.01 -37.84,45.68 -55.1,69.78 -35.16,49.09 -67.33,100.39 -91.59,155.81 1.15,-29.36 8.91,-58.58 17.2,-86.58 4.29,-14.53 9.06,-28.92 13.37,-43.45zm105.42 -133.13c-24.1,14.36 -45.61,33.07 -66.71,51.41 -18.9,16.42 -35.03,33.46 -43.7,57.4 -8.65,23.83 -15.84,48.49 -22.81,72.88 -8.07,28.25 -13.6,56.63 -13.44,86.13 0.04,6.72 9.96,5.9 10.51,-0.43 0.24,-0.43 0.5,-0.86 0.75,-1.28 4.43,-2.18 8.72,-5.04 12.88,-7.16 9.75,-4.96 19.45,-10.07 29.38,-14.67 26.14,-12.11 53.88,-18.39 77.88,-35.07 41.5,-28.88 69.09,-75.43 80.24,-124.23 7.5,-32.79 7.95,-66.68 14.67,-99.6 0.53,-0.44 1.05,-0.88 1.58,-1.32 2.09,-1.79 1.2,-4.37 -0.68,-5.13 -0.55,-2.83 -3.24,-5.35 -6.23,-4.88 -26.29,4.15 -51.39,12.3 -74.29,25.96z"/>
  <path class="fil3" d="M3329.11 415.27c-2.98,1.74 -5.94,3.51 -8.87,5.32 3.25,-4.42 6.16,-9.3 8.87,-14.17l0 -10.8c-5.91,9.96 -12.92,19.88 -17.28,30.36 -0.16,0.11 -0.31,0.22 -0.46,0.32 -6.07,-28.27 0.38,-59.52 9.52,-86.35 2.56,-7.51 5.3,-15.03 8.22,-22.5l0 -29.82c-9.73,20.96 -18.57,42.65 -24.77,64.89 -7.49,26.81 -8.38,52.33 0.31,78.9 1.39,4.28 6.91,2.61 7.35,-1.11 5.73,-1.95 11.44,-4.16 17.12,-6.56l0 -8.48z"/>
  <path class="fil3" d="M3033.47 414.56c-5.98,14.12 -12.16,27.51 -22.37,39.12 -20.68,23.53 -46.17,44.07 -71.07,62.97 -23.57,17.91 -48.43,34.17 -74.8,47.65 2.9,-3.24 5.63,-6.74 8.71,-9.76 4.97,-4.89 10.03,-9.61 14.69,-14.81 8.78,-9.84 16.32,-20.71 23.07,-32.02 14.19,-23.73 24.93,-49.3 37.75,-73.74 14.01,-26.73 31.85,-50.04 51.91,-72.47 18.8,-21.02 41.98,-41.98 55.17,-67.26 0.14,-0.05 0.26,-0.1 0.39,-0.15 3.35,26.87 0.87,52.33 -7.28,78.37 -4.48,14.34 -10.33,28.28 -16.19,42.11zm-123.45 -7.95c20.5,-22.94 43.01,-45.55 66.22,-65.73 21.96,-19.12 46.84,-34.29 74.05,-44.42 -7.98,10.12 -15.41,20.68 -23.83,30.47 -9.92,11.56 -20.3,22.71 -30.44,34.07 -18.95,21.23 -35.86,43.43 -49.29,68.58 -13.03,24.37 -23.73,49.96 -37.91,73.71 -7.5,12.55 -16.01,24.53 -26.05,35.19 -5.47,5.82 -13.03,11.91 -18.6,18.77 -0.59,-24.46 4.53,-48.57 11.23,-72.16 7.87,-27.7 15.01,-56.54 34.62,-78.49zm145.25 -121.53c-30.78,10.94 -59.66,26.87 -84.19,48.5 -12.4,10.95 -23.87,22.92 -35.53,34.64 -11.5,11.55 -23.54,22.77 -34.19,35.11 -19.39,22.46 -26.66,52.25 -34.63,80.18 -8.22,28.76 -14.03,58.45 -10.54,88.45 0.31,2.62 3.24,5.2 6,3.87 30.45,-14.8 58.77,-33.25 85.19,-54.39 13.51,-10.81 26.48,-22.22 39.22,-33.9 11.39,-10.41 23.22,-20.77 32.95,-32.8 9.64,-11.92 15.47,-25.82 21.31,-39.86 5.9,-14.17 11.48,-28.47 16.15,-43.1 8.35,-26.13 14.23,-55.96 4.89,-82.6 -0.19,-0.55 -0.55,-0.98 -0.95,-1.27 -0.78,-2.13 -2.94,-3.79 -5.68,-2.83z"/>
 </g>
</svg>
